<?xml version="1.0" encoding="UTF-8"?><svg id="Calque_1" xmlns="http://www.w3.org/2000/svg" viewBox="0 0 500 145"><defs><style>.cls-1{fill:#731e15;}.cls-1,.cls-2{stroke-width:0px;}.cls-2{fill:#d07f10;}</style></defs><path class="cls-1" d="M105.63,8.49v129.02h-19.63v-66.93l-24.15,66.93h-15.16l-24.15-66.93v66.93H2.92V8.49h18.09l33.27,92.21L87.54,8.49h18.09Z"/><path class="cls-1" d="M196.85,47.04v51.92c0,10.49-4.08,20.34-11.49,27.74-7.41,7.4-17.26,11.5-27.74,11.5s-20.34-4.08-27.74-11.5c-7.41-7.41-11.5-17.26-11.5-27.74v-51.92c0-10.49,4.08-20.34,11.49-27.75,7.41-7.41,17.26-11.49,27.75-11.49s20.33,4.08,27.74,11.49c7.41,7.41,11.49,17.26,11.49,27.75ZM177.23,47.04c0-5.24-2.04-10.16-5.74-13.87-3.7-3.71-8.63-5.74-13.86-5.74s-10.16,2.03-13.87,5.74c-3.71,3.7-5.74,8.63-5.74,13.87v51.92c0,5.25,2.04,10.16,5.74,13.87,3.71,3.7,8.63,5.74,13.87,5.74s10.15-2.04,13.86-5.74c3.71-3.71,5.74-8.63,5.74-13.87v-51.92Z"/><path class="cls-1" d="M285.81,47.04v51.92c0,10.49-4.08,20.34-11.49,27.74-7.41,7.4-17.26,11.5-27.74,11.5s-20.34-4.08-27.74-11.5c-7.41-7.41-11.5-17.26-11.5-27.74v-51.92c0-10.49,4.08-20.34,11.49-27.75,7.41-7.41,17.26-11.49,27.75-11.49s20.33,4.08,27.74,11.49c7.41,7.41,11.49,17.26,11.49,27.75ZM266.2,47.04c0-5.24-2.04-10.16-5.74-13.87-3.7-3.71-8.63-5.74-13.86-5.74s-10.16,2.03-13.87,5.74c-3.71,3.7-5.74,8.63-5.74,13.87v51.92c0,5.25,2.04,10.16,5.74,13.87,3.71,3.7,8.63,5.74,13.87,5.74s10.15-2.04,13.86-5.74c3.71-3.71,5.74-8.63,5.74-13.87v-51.92Z"/><path class="cls-1" d="M377.75,138.22h-21.09l-18.51-47.79c-6.19,2.51-12.98,3.91-19.99,3.91v43.88h-19.62V7.77h19.62v66.96c5.79.88,39.23-7.42,39.23-32.57,4.26,0,16.97,0,19.62,0,0,20.43-13.24,35.57-21.9,37.66l22.64,58.41Z"/><path class="cls-1" d="M459.98,138.2h-20.18l-7.1-29.42h-24.81l-7.09,29.42h-20.19l31.26-129.71h16.84l31.26,129.72h0ZM427.97,89.15l-7.68-31.84-7.68,31.84h15.35Z"/><path class="cls-1" d="M467.26,138.21V42.44h19.63v95.77h-19.63Z"/><path class="cls-2" d="M346.14,32.78c-.17-.34-.32-.95-.43-1.82-1.36,1.44-3,2.18-4.91,2.19-1.71.02-3.11-.46-4.22-1.41-1.1-.95-1.66-2.17-1.68-3.66-.02-1.8.66-3.21,2.02-4.22s3.29-1.53,5.77-1.55l2.88-.03v-1.36c-.02-1.04-.34-1.86-.97-2.47-.63-.61-1.54-.91-2.75-.89-1.06,0-1.94.29-2.65.83-.71.54-1.06,1.19-1.05,1.95l-2.98.03c0-.87.29-1.7.9-2.51.61-.81,1.43-1.46,2.48-1.94,1.04-.48,2.2-.73,3.46-.74,2-.02,3.56.47,4.7,1.45,1.14.99,1.74,2.36,1.8,4.1l.08,7.97c.02,1.59.23,2.86.65,3.79v.26s-3.1.03-3.1.03ZM341.2,30.57c.93,0,1.81-.26,2.64-.74.83-.49,1.42-1.12,1.79-1.89l-.03-3.56-2.32.02c-3.63.04-5.43,1.12-5.41,3.24,0,.93.33,1.65.95,2.17.63.52,1.42.77,2.39.76Z"/><path class="cls-2" d="M363.32,28.02c0-.8-.32-1.42-.92-1.86-.61-.44-1.66-.81-3.17-1.11-1.5-.31-2.7-.68-3.58-1.12-.88-.44-1.54-.97-1.97-1.58-.43-.62-.65-1.35-.65-2.2-.02-1.42.58-2.63,1.77-3.62,1.19-.99,2.72-1.5,4.59-1.52,1.96-.02,3.56.47,4.79,1.47,1.23,1,1.86,2.3,1.87,3.87l-2.98.03c0-.81-.36-1.51-1.05-2.09-.7-.58-1.57-.87-2.61-.86-1.08.01-1.92.26-2.52.73-.6.48-.9,1.09-.89,1.85,0,.71.29,1.25.86,1.61.57.36,1.59.7,3.08,1.01,1.48.32,2.69.7,3.61,1.15.92.45,1.61,1,2.06,1.64.45.64.68,1.43.69,2.35.02,1.55-.59,2.79-1.82,3.74-1.23.95-2.83,1.43-4.81,1.45-1.39.01-2.62-.22-3.69-.7-1.07-.48-1.92-1.16-2.53-2.03-.61-.87-.92-1.83-.93-2.85l2.96-.03c.07.99.47,1.77,1.22,2.35s1.73.86,2.95.85c1.12-.01,2.02-.25,2.69-.71.67-.46,1.01-1.07,1-1.83Z"/><path class="cls-2" d="M384.77,23.94c.03,2.65-.56,4.78-1.76,6.4-1.2,1.62-2.83,2.44-4.88,2.46-2.19.02-3.89-.74-5.1-2.27l-.12,2-2.72.03-.24-24.59,2.96-.03.09,9.18c1.18-1.5,2.82-2.25,4.93-2.27,2.1-.02,3.76.76,4.98,2.34,1.22,1.58,1.84,3.75,1.87,6.52v.26ZM381.8,23.63c-.02-2.02-.42-3.57-1.21-4.67-.79-1.09-1.92-1.63-3.38-1.61-1.95.02-3.35.94-4.19,2.76l.07,7.49c.92,1.8,2.35,2.7,4.27,2.68,1.42-.01,2.52-.57,3.3-1.68.78-1.11,1.16-2.77,1.14-4.97Z"/><path class="cls-2" d="M391.8,32.34l-2.96.03-.24-24.59,2.96-.03.24,24.59Z"/><circle class="cls-1" cx="465.24" cy="14.93" r="8.16"/><circle class="cls-1" cx="488.92" cy="14.93" r="8.16"/></svg>