<?xml version="1.0" encoding="UTF-8"?>
<svg id="Calque_1" data-name="Calque 1" xmlns="http://www.w3.org/2000/svg" version="1.1" viewBox="0 0 500 135">
  <defs>
    <style>
      .cls-1 {
        fill: #1d1d1b;
        stroke-width: 0px;
      }
    </style>
  </defs>
  <g>
    <path class="cls-1" d="M106.7,4v128h-19.5v-66.4l-24,66.4h-15l-24-66.4v66.4H4.8V4h18l33,91.5L88.8,4h18Z"/>
    <path class="cls-1" d="M197.3,42.2v51.5c0,10.4-4,20.2-11.4,27.5-7.4,7.3-17.1,11.4-27.5,11.4s-20.2-4-27.5-11.4c-7.4-7.3-11.4-17.1-11.4-27.5v-51.5c0-10.4,4-20.2,11.4-27.5,7.4-7.3,17.1-11.4,27.5-11.4s20.2,4,27.5,11.4c7.3,7.4,11.4,17.1,11.4,27.5ZM177.8,42.2c0-5.2-2-10.1-5.7-13.8-3.7-3.7-8.6-5.7-13.8-5.7s-10.1,2-13.8,5.7c-3.7,3.7-5.7,8.6-5.7,13.8v51.5c0,5.2,2,10.1,5.7,13.8,3.7,3.7,8.6,5.7,13.8,5.7s10.1-2,13.8-5.7c3.7-3.7,5.7-8.6,5.7-13.8v-51.5Z"/>
    <path class="cls-1" d="M285.5,42.2v51.5c0,10.4-4,20.2-11.4,27.5-7.4,7.3-17.1,11.4-27.5,11.4s-20.2-4-27.5-11.4c-7.4-7.3-11.4-17.1-11.4-27.5v-51.5c0-10.4,4-20.2,11.4-27.5,7.4-7.3,17.1-11.4,27.5-11.4s20.2,4,27.5,11.4c7.3,7.4,11.4,17.1,11.4,27.5ZM266.1,42.2c0-5.2-2-10.1-5.7-13.8-3.7-3.7-8.6-5.7-13.8-5.7s-10.1,2-13.8,5.7c-3.7,3.7-5.7,8.6-5.7,13.8v51.5c0,5.2,2,10.1,5.7,13.8,3.7,3.7,8.6,5.7,13.8,5.7s10.1-2,13.8-5.7c3.7-3.7,5.7-8.6,5.7-13.8v-51.5Z"/>
    <path class="cls-1" d="M376.8,132.7h-20.9l-18.4-47.4c-6.1,2.5-12.9,3.9-19.8,3.9v43.5h-19.5V3.3h19.5v66.4c5.7.9,38.9-7.4,38.9-32.3,4.2,0,16.8,0,19.5,0,0,20.3-13.1,35.3-21.7,37.4l22.5,58Z"/>
    <path class="cls-1" d="M458.4,132.7h-20l-7-29.2h-24.6l-7,29.2h-20L410.6,4h16.7l31,128.7h0ZM426.6,84l-7.6-31.6-7.6,31.6h15.2Z"/>
    <path class="cls-1" d="M465.6,132.7V37.7h19.5v95h-19.5Z"/>
  </g>
  <circle class="cls-1" cx="463.6" cy="10.4" r="8.1"/>
  <circle class="cls-1" cx="487.1" cy="10.4" r="8.1"/>
</svg>