<?xml version="1.0" standalone="no"?>
<!DOCTYPE svg PUBLIC "-//W3C//DTD SVG 20010904//EN"
 "http://www.w3.org/TR/2001/REC-SVG-20010904/DTD/svg10.dtd">
<svg version="1.0" xmlns="http://www.w3.org/2000/svg"
 width="267.000000pt" height="267.000000pt" viewBox="0 0 267.000000 267.000000"
 preserveAspectRatio="xMidYMid meet">
<metadata>
Created by potrace 1.14, written by Peter Selinger 2001-2017
</metadata>
<g transform="translate(0.000000,267.000000) scale(0.100000,-0.100000)"
fill="#000000" stroke="none">
<path d="M1395 2580 c-93 -15 -188 -77 -240 -156 -60 -90 -65 -131 -62 -469
l2 -300 31 -65 c61 -126 169 -200 305 -208 98 -5 170 15 240 68 65 48 111 116
134 192 14 49 16 101 13 365 l-3 308 -28 57 c-74 150 -233 235 -392 208z m132
-195 c39 -16 66 -43 91 -90 13 -25 16 -74 17 -295 0 -146 -2 -280 -6 -298 -16
-76 -99 -142 -176 -142 -72 1 -151 66 -170 140 -5 19 -9 154 -8 300 1 289 3
296 62 352 51 49 122 61 190 33z"/>
<path d="M2210 2579 c-139 -26 -267 -153 -288 -286 -3 -21 -6 -171 -6 -333 1
-343 6 -366 95 -464 193 -211 543 -124 619 154 9 31 13 137 13 330 0 313 -5
353 -61 440 -75 118 -230 184 -372 159z m146 -199 c24 -12 54 -39 70 -62 l29
-41 2 -266 c2 -271 -4 -340 -35 -376 -90 -107 -242 -93 -304 28 -20 40 -21 56
-20 319 1 309 4 325 68 376 58 46 123 54 190 22z"/>
<path d="M27 2572 c-3 -6 -1 -1149 2 -1179 1 -9 26 -13 91 -13 l90 0 2 300 3
300 103 -288 c57 -159 107 -294 111 -301 5 -8 30 -11 76 -9 l68 3 49 135 c27
74 67 187 90 250 71 200 77 215 78 200 1 -8 1 -144 1 -302 l0 -288 93 0 94 0
0 600 0 601 -85 -3 -85 -3 -23 -60 c-13 -33 -81 -221 -152 -417 -70 -196 -131
-354 -134 -350 -8 9 -24 53 -234 637 -26 72 -53 144 -60 162 l-14 32 -80 0
c-44 0 -82 -3 -84 -7z"/>
<path d="M2314 1298 c-68 -36 -54 -129 21 -144 44 -8 85 26 85 71 0 58 -57 98
-106 73z"/>
<path d="M2533 1300 c-43 -17 -57 -81 -25 -119 9 -11 32 -23 50 -26 26 -4 38
0 57 19 60 60 -3 157 -82 126z"/>
<path d="M808 1293 c-4 -7 -3 -1171 1 -1198 1 -9 30 -10 151 -6 l31 1 -3 200
c-2 110 -1 200 2 201 3 0 24 3 48 5 23 3 63 11 88 19 43 13 45 12 54 -8 4 -12
40 -104 78 -204 39 -100 75 -190 80 -200 10 -17 43 -20 184 -14 16 1 16 5 -3
54 -12 28 -25 63 -29 77 -5 14 -42 110 -83 215 l-75 190 32 18 c85 50 158 180
165 295 l3 42 -90 0 -90 0 -7 -37 c-10 -54 -41 -111 -83 -150 -46 -43 -166
-101 -227 -110 l-45 -6 -1 49 c0 27 0 167 0 310 l0 262 -89 1 c-49 1 -90 -2
-92 -6z"/>
<path d="M1845 1268 c-3 -13 -24 -99 -46 -193 -23 -93 -42 -177 -44 -185 -2
-8 -20 -82 -40 -165 -20 -82 -38 -157 -40 -165 -5 -24 -41 -175 -74 -310 -16
-69 -33 -134 -37 -143 -6 -16 2 -18 92 -15 l99 3 30 130 31 130 114 3 115 2
23 -97 c12 -54 27 -115 33 -135 l10 -38 95 0 c86 0 95 2 90 18 -5 16 -59 239
-121 497 -35 150 -145 601 -156 648 l-10 37 -79 0 c-74 0 -80 -1 -85 -22z
m121 -585 c14 -59 27 -115 30 -123 3 -13 -7 -15 -64 -14 -37 1 -68 2 -68 3 -1
0 11 52 27 114 16 61 29 123 29 137 1 44 18 1 46 -117z"/>
<path d="M2372 971 c-5 -4 -9 -181 -9 -443 l0 -438 93 0 94 0 0 440 c0 242 -3
441 -7 441 -31 5 -163 5 -171 0z"/>
</g>
</svg>
