<?xml version="1.0" standalone="no"?>
<!DOCTYPE svg PUBLIC "-//W3C//DTD SVG 20010904//EN"
 "http://www.w3.org/TR/2001/REC-SVG-20010904/DTD/svg10.dtd">
<svg version="1.0" xmlns="http://www.w3.org/2000/svg"
 width="510.000000pt" height="510.000000pt" viewBox="0 0 510.000000 510.000000"
 preserveAspectRatio="xMidYMid meet">
<metadata>
Created by potrace 1.14, written by Peter Selinger 2001-2017
</metadata>
<g transform="translate(0.000000,510.000000) scale(0.100000,-0.100000)"
fill="#000000" stroke="none">
<path d="M1935 5040 c3 -5 8 -10 11 -10 2 0 4 5 4 10 0 6 -5 10 -11 10 -5 0
-7 -4 -4 -10z"/>
<path d="M1843 5018 c-4 -7 -1 -8 7 -3 10 6 12 4 7 -8 -4 -10 -2 -16 5 -14 7
1 14 -7 16 -18 4 -18 3 -18 -14 -5 -18 14 -18 14 -4 -4 14 -18 13 -19 -3 -13
-15 6 -16 4 -7 -13 6 -11 13 -20 16 -20 3 0 2 5 -2 12 -4 7 -3 8 5 4 7 -5 10
-2 9 6 -2 7 3 12 10 11 16 -4 15 9 -3 33 -22 29 -18 36 10 18 13 -8 30 -12 36
-8 8 5 9 3 5 -5 -5 -7 -14 -10 -22 -7 -17 6 -19 -10 -2 -20 6 -4 17 1 24 10 8
12 13 13 16 5 3 -10 8 -9 24 0 14 9 15 11 2 7 -11 -3 -24 4 -36 19 -13 17 -22
21 -30 13 -6 -6 -16 -7 -24 -2 -20 13 -37 13 -45 2z"/>
<path d="M1933 4959 c-5 -5 -19 -11 -31 -12 -11 0 -19 -4 -16 -8 2 -4 -3 -12
-10 -19 -11 -9 -20 -9 -38 1 -13 6 -20 8 -16 4 4 -4 -1 -15 -10 -24 -10 -9
-12 -12 -5 -7 8 5 16 6 19 3 3 -3 -3 -12 -15 -19 -12 -7 -21 -19 -21 -27 0
-11 4 -10 16 5 15 18 15 18 10 0 -5 -13 -2 -17 8 -13 11 4 13 1 9 -10 -4 -11
-2 -14 5 -9 7 4 12 3 12 -2 0 -6 -7 -13 -15 -16 -14 -5 -14 -9 1 -33 l16 -28
-21 25 c-23 28 -26 40 -10 40 5 0 7 5 4 10 -3 6 -11 10 -16 10 -6 0 -8 -4 -5
-9 3 -5 -4 -11 -16 -14 -18 -5 -19 -8 -8 -21 7 -9 9 -16 4 -16 -4 0 -3 -5 4
-12 14 -14 16 -32 2 -23 -6 3 -7 -1 -3 -10 5 -13 8 -14 15 -3 6 9 8 7 6 -8 -2
-11 4 -29 12 -39 14 -17 13 -17 -10 -11 -22 6 -22 5 -7 -4 15 -9 23 -8 40 6
12 10 17 12 10 5 -9 -11 -9 -20 2 -41 14 -27 10 -70 -7 -70 -5 0 -4 10 2 23
11 21 10 21 -4 3 -25 -31 -19 -42 21 -37 6 1 14 -3 18 -9 3 -6 0 -7 -9 -4 -11
4 -14 0 -11 -15 2 -11 1 -20 -3 -20 -19 3 -32 -2 -32 -12 0 -6 10 -8 23 -5 12
3 16 3 9 0 -7 -3 -17 -15 -23 -26 -8 -15 -8 -19 0 -14 6 4 11 1 11 -8 0 -8 -4
-18 -10 -21 -13 -8 -13 -25 1 -25 5 0 7 5 3 12 -5 7 -3 8 6 3 8 -5 11 -4 6 3
-3 6 -2 13 3 16 17 11 5 -23 -16 -46 -11 -13 -18 -30 -15 -38 5 -13 3 -13 -14
0 -19 14 -19 14 0 -8 20 -23 32 -30 21 -12 -3 6 -2 10 3 10 6 0 13 -7 16 -16
3 -8 2 -13 -3 -10 -5 3 -17 -6 -26 -20 -9 -15 -12 -24 -7 -20 6 3 13 2 17 -4
3 -5 2 -10 -3 -10 -14 0 -6 -71 9 -81 10 -6 10 -9 2 -9 -7 0 -13 -6 -13 -14 0
-8 -6 -16 -12 -19 -7 -3 5 -4 26 -2 37 2 38 1 20 -12 -16 -12 -17 -15 -4 -23
8 -5 18 -6 24 -3 5 3 6 1 2 -5 -4 -6 -14 -8 -23 -5 -11 4 -14 3 -9 -5 4 -7 10
-24 12 -38 4 -24 3 -25 -11 -11 -17 18 -20 31 -4 21 8 -4 8 -1 1 12 -5 11 -8
29 -7 41 1 12 -2 20 -5 18 -11 -7 -5 -78 9 -103 12 -22 11 -23 -11 -17 -18 5
-20 4 -8 -4 8 -6 11 -11 6 -11 -5 0 -2 -8 6 -17 8 -10 14 -29 13 -43 -1 -14 3
-28 9 -33 6 -4 0 -6 -14 -5 -19 2 -24 -1 -22 -14 2 -10 -3 -18 -10 -18 -7 -1
-1 -8 15 -16 15 -8 27 -20 27 -27 0 -9 -2 -9 -8 1 -10 14 -52 25 -52 12 0 -4
7 -11 15 -14 13 -4 14 -10 5 -26 -6 -11 -8 -20 -4 -20 3 0 1 -7 -6 -16 -11
-12 -11 -15 1 -12 9 2 14 -5 13 -19 -1 -13 2 -20 6 -18 4 3 10 -2 13 -10 4 -9
1 -12 -7 -9 -10 4 -13 -3 -10 -26 2 -17 0 -29 -4 -26 -5 3 -9 -1 -9 -9 0 -8 4
-12 9 -9 13 8 13 -35 1 -66 -3 -8 -8 -24 -10 -35 -2 -16 -1 -17 6 -5 5 8 7 18
4 24 -3 5 -1 6 5 2 7 -4 8 -16 4 -29 -4 -12 -7 -29 -6 -37 1 -8 2 -21 3 -29 1
-8 7 -11 18 -7 10 4 14 4 10 0 -4 -4 -2 -13 4 -20 7 -8 7 -14 -1 -19 -6 -4 -9
-1 -8 6 2 6 -3 14 -11 17 -8 3 -11 0 -7 -7 9 -13 1 -14 -23 -2 -13 7 -18 6
-18 -4 0 -7 6 -11 14 -8 7 3 13 0 13 -6 0 -6 -5 -11 -11 -11 -5 0 -7 -5 -3
-11 5 -8 10 -6 16 5 10 17 28 13 28 -7 0 -7 -4 -6 -10 3 -8 12 -10 9 -10 -12
0 -14 3 -28 8 -31 4 -2 1 -2 -6 0 -9 2 -11 -3 -7 -17 4 -12 2 -20 -5 -20 -6 0
-8 5 -4 12 4 7 3 8 -4 4 -15 -9 -15 -1 -2 25 6 10 8 19 6 19 -3 0 -10 -9 -16
-21 -9 -16 -8 -25 6 -40 22 -24 28 -73 8 -65 -7 3 -13 2 -13 -2 1 -4 0 -10 -1
-14 -1 -5 -3 -14 -4 -20 -1 -7 -6 -12 -12 -11 -16 3 -14 -35 4 -49 11 -9 14
-10 8 0 -4 7 -2 12 4 12 7 0 9 -7 6 -16 -3 -9 -6 -18 -6 -21 0 -3 -6 0 -14 6
-10 9 -16 9 -21 1 -4 -6 -4 -14 -1 -17 3 -4 6 -1 6 6 0 14 49 -19 50 -33 0 -6
-5 -5 -12 2 -7 7 -19 12 -27 12 -11 0 -10 -4 5 -16 10 -8 15 -14 9 -11 -5 2
-18 -4 -27 -14 -16 -17 -16 -18 2 -16 10 1 16 5 14 9 -3 4 -1 8 4 8 6 0 13 -7
16 -16 3 -8 2 -12 -4 -9 -6 3 -10 1 -10 -5 0 -6 -4 -8 -10 -5 -6 3 -7 -1 -4
-9 3 -9 14 -16 23 -16 14 0 14 2 1 10 -12 7 -11 9 6 8 15 -2 20 -9 20 -29 0
-16 -3 -26 -8 -23 -8 5 -12 -10 -9 -33 1 -7 -6 -13 -16 -13 -15 0 -16 2 -3 10
12 8 13 10 1 10 -10 0 -8 7 7 23 25 27 28 39 7 31 -8 -3 -13 -11 -12 -17 1 -7
-3 -11 -8 -10 -6 1 -11 -13 -12 -30 -1 -18 -3 -41 -6 -52 -5 -21 9 -45 25 -45
5 0 6 5 2 12 -4 7 -3 8 5 4 15 -10 3 -29 -14 -22 -18 6 -27 -5 -15 -19 7 -8 5
-12 -5 -12 -8 0 -11 5 -8 10 4 6 -5 8 -20 5 -16 -3 -24 -1 -20 5 3 6 1 7 -5 3
-7 -4 -12 -1 -12 6 0 8 -4 7 -11 -4 -5 -10 -16 -15 -24 -12 -8 4 -15 1 -15 -7
0 -7 -3 -9 -7 -6 -8 9 -33 -12 -33 -27 0 -6 7 -3 14 7 12 16 14 16 20 2 3 -9
2 -13 -3 -10 -5 3 -16 -4 -24 -15 -13 -18 -15 -19 -21 -5 -4 10 -2 14 6 9 7
-4 8 -3 4 5 -13 20 -26 1 -20 -27 4 -19 3 -23 -4 -13 -8 11 -11 11 -16 0 -3
-8 -3 -3 0 10 4 16 3 21 -5 17 -6 -4 -11 -14 -11 -22 0 -8 -5 -14 -11 -14 -5
0 -7 -5 -3 -12 4 -7 3 -8 -5 -4 -9 6 -9 12 1 24 12 15 11 16 -5 3 -10 -8 -15
-21 -12 -29 4 -12 3 -12 -9 -3 -11 9 -16 9 -21 0 -6 -8 -10 -7 -17 2 -8 11 -9
11 -5 -1 2 -8 10 -14 16 -12 6 1 11 -3 11 -9 0 -5 5 -7 12 -3 7 4 8 3 4 -5 -4
-6 -12 -9 -17 -5 -5 3 -17 0 -25 -7 -20 -16 -54 -22 -54 -9 0 6 -5 10 -11 10
-5 0 -7 -4 -4 -10 6 -10 -10 -15 -30 -10 -5 1 -16 3 -22 3 -7 0 -13 4 -13 9 0
4 -5 8 -12 8 -6 0 -8 -3 -5 -7 4 -3 -3 -18 -15 -31 -13 -14 -18 -23 -13 -19 6
3 17 1 25 -4 12 -8 11 -9 -5 -7 -15 2 -19 -2 -17 -17 2 -16 1 -17 -7 -5 -10
13 -15 8 -12 -12 0 -4 -6 -5 -14 -2 -8 4 -15 10 -15 16 0 5 5 6 12 2 7 -4 8
-3 4 5 -4 6 -3 10 2 9 6 -2 10 0 11 5 3 26 -1 29 -14 10 -9 -12 -21 -21 -28
-19 -6 1 -9 1 -4 -1 4 -3 7 -8 7 -13 0 -9 -26 -7 -36 3 -13 13 -26 7 -20 -8 3
-9 -3 -19 -15 -25 -11 -6 -16 -16 -13 -22 5 -7 2 -8 -7 -3 -14 9 -52 15 -45 7
6 -5 -9 -24 -48 -64 -16 -16 -31 -26 -34 -23 -3 3 -15 -3 -26 -12 -20 -17 -20
-17 -7 0 10 12 10 17 2 17 -7 0 -10 4 -7 8 3 5 -1 9 -9 9 -10 0 -12 -4 -5 -12
10 -12 4 -25 -12 -25 -5 0 -6 6 -2 13 5 9 3 9 -7 -1 -12 -11 -12 -14 0 -21 9
-6 5 -9 -13 -9 l-26 0 21 32 21 31 -24 -28 c-17 -19 -27 -24 -36 -17 -9 7 -9
7 -2 -2 13 -16 13 -38 -1 -38 -5 0 -8 4 -4 9 3 5 1 12 -4 15 -5 4 -8 -5 -7
-18 2 -17 -1 -23 -11 -19 -9 4 -11 0 -7 -11 5 -12 2 -15 -10 -10 -9 3 -13 11
-10 16 4 6 -3 5 -15 -1 -22 -12 -26 -23 -14 -35 11 -10 12 -37 2 -30 -5 3 -7
9 -4 14 2 4 -13 7 -34 6 -22 0 -37 -4 -35 -8 2 -4 0 -10 -6 -13 -8 -5 -8 -11
0 -20 9 -10 7 -13 -7 -10 -18 3 -19 7 -8 38 4 10 3 17 -4 17 -6 0 -10 -3 -10
-8 4 -21 -3 -30 -23 -30 -38 0 -60 -8 -73 -25 -12 -17 -31 -24 -21 -9 3 5 -1
9 -8 9 -14 0 -16 -21 -4 -33 8 -8 -2 -34 -13 -34 -4 0 -6 7 -3 15 4 8 1 15 -6
15 -6 0 -8 -5 -5 -10 3 -5 -1 -10 -10 -10 -13 0 -14 -2 -3 -14 7 -8 16 -12 20
-9 5 2 8 0 8 -6 0 -5 -9 -9 -19 -8 -11 0 -18 4 -15 8 2 4 -3 9 -10 12 -9 4
-15 -1 -15 -11 -1 -36 -5 -52 -10 -47 -10 11 -9 35 2 35 8 0 7 3 -1 9 -8 4
-13 12 -12 17 1 5 -3 9 -10 10 -6 2 -6 0 -1 -2 17 -9 -10 -53 -33 -53 -49 -1
-55 -3 -52 -14 1 -7 1 -9 -1 -4 -3 4 -10 4 -15 1 -7 -4 -8 -2 -4 4 9 15 -16
16 -31 1 -13 -13 -36 -2 -27 13 4 7 9 6 14 -2 5 -9 9 -9 14 -1 4 6 4 11 -1 12
-4 0 -16 2 -26 4 -9 2 -15 -1 -12 -5 3 -5 1 -11 -5 -15 -14 -8 -13 -26 1 -23
6 2 14 -4 16 -12 4 -13 3 -13 -6 0 -10 13 -15 8 -12 -12 0 -5 -4 -8 -10 -8 -6
0 -9 6 -6 14 3 8 0 19 -7 25 -17 14 -29 1 -14 -16 6 -7 8 -17 4 -20 -4 -4 -11
-1 -16 7 -6 10 -7 2 -3 -23 5 -35 0 -42 -29 -38 -5 0 -4 -22 2 -39 6 -15 4
-37 -4 -48 -7 -10 -3 -10 19 -2 15 6 30 8 33 5 3 -3 -1 -5 -8 -5 -11 0 -11 -3
-2 -12 10 -10 15 -10 23 2 9 13 10 12 5 -2 -3 -10 0 -20 6 -24 7 -5 5 -12 -8
-22 -19 -14 -18 -15 1 -8 36 13 40 11 38 -14 -1 -14 1 -19 3 -12 8 18 22 15
29 -9 4 -11 9 -18 12 -15 3 3 -5 22 -17 43 -20 34 -20 36 -3 20 11 -9 23 -14
28 -10 4 5 5 2 1 -5 -9 -16 24 -13 37 3 4 6 5 -3 3 -19 -4 -21 -2 -26 6 -18 6
6 17 8 25 5 12 -5 14 -1 8 15 -4 14 -2 22 5 22 6 0 9 -4 6 -8 -2 -4 -1 -14 5
-22 6 -10 9 -11 9 -2 0 6 7 12 16 12 8 0 12 5 8 11 -4 8 0 8 15 0 11 -7 21
-16 21 -20 0 -5 15 -8 34 -8 31 1 33 4 29 26 -4 26 6 25 11 -1 2 -7 6 -21 11
-30 6 -16 9 -16 26 5 10 12 18 17 19 11 0 -5 -5 -15 -11 -21 -8 -8 -8 -13 0
-18 7 -4 10 -1 9 7 -2 8 10 14 35 16 20 2 35 7 32 12 -3 5 0 12 6 16 8 4 9 3
5 -4 -3 -6 3 -16 14 -22 19 -10 24 -7 21 13 -1 5 3 6 9 2 6 -3 8 -10 5 -15 -3
-4 -2 -15 1 -24 5 -14 8 -14 22 1 10 9 17 20 17 24 0 4 3 10 6 13 9 9 7 -28
-2 -40 -5 -7 -3 -11 6 -11 8 0 12 4 9 9 -3 4 2 8 11 8 9 0 14 -4 11 -8 -3 -5
1 -9 9 -9 8 0 11 5 8 10 -3 5 0 7 8 5 8 -3 13 -12 11 -19 -3 -11 -1 -12 10 -1
11 11 10 14 -2 22 -8 6 -20 8 -27 5 -7 -2 -10 2 -6 11 5 13 8 13 28 0 14 -9
26 -11 32 -5 6 6 10 4 10 -5 0 -8 -4 -13 -9 -10 -4 3 -5 -2 -2 -10 7 -19 20
-21 30 -4 4 7 3 8 -4 4 -8 -4 -10 -2 -6 8 5 12 8 12 23 -2 10 -9 16 -21 13
-25 -2 -5 5 -4 16 2 11 6 22 14 24 18 3 5 3 3 2 -4 -2 -6 4 -14 12 -17 21 -8
24 -8 24 5 0 5 -5 7 -12 3 -7 -4 -8 -3 -4 5 6 9 11 9 23 -1 12 -10 18 -9 30 7
13 17 15 17 10 2 -8 -21 9 -23 21 -1 8 15 10 15 15 -1 4 -9 11 -13 17 -10 5 3
10 1 10 -4 0 -14 -13 -14 -28 1 -9 9 -12 9 -12 0 0 -11 5 -14 33 -16 6 -1 16
-5 20 -11 5 -6 7 -3 4 7 -3 9 2 22 11 30 8 7 13 8 10 3 -4 -6 0 -19 8 -30 12
-16 14 -16 14 -3 0 9 5 20 12 24 6 4 8 3 4 -4 -3 -6 -1 -14 5 -18 8 -5 9 -3 4
6 -6 10 -4 12 10 6 11 -4 26 0 39 11 13 12 17 13 9 3 -10 -14 -5 -16 40 -18
94 -3 148 1 167 12 12 8 13 7 4 -5 -14 -19 -15 -57 -2 -65 7 -4 8 -2 4 4 -14
23 5 34 26 15 15 -13 19 -14 16 -3 -2 10 4 14 20 12 12 -2 22 2 22 8 0 7 5 8
13 3 6 -4 15 -8 20 -8 4 0 7 -4 6 -10 -1 -5 -5 -9 -11 -7 -5 1 -7 -2 -3 -8 5
-8 11 -7 22 2 20 16 44 19 62 7 14 -9 13 -10 -1 -5 -10 3 -18 1 -18 -5 0 -7
10 -9 26 -5 14 4 23 3 20 -2 -2 -4 0 -14 6 -22 8 -12 9 -12 4 3 -3 11 0 17 10
17 9 0 12 5 8 12 -4 7 -3 8 5 4 8 -5 9 -12 2 -19 -6 -8 -4 -17 7 -27 14 -13
15 -12 9 3 -4 10 -3 16 2 12 5 -3 12 1 15 7 3 7 3 0 0 -17 l-5 -30 15 30 c14
29 15 29 11 4 -2 -17 2 -26 11 -26 9 0 12 8 10 24 -3 13 0 23 6 23 5 0 8 -7 4
-15 -3 -8 2 -21 10 -30 9 -8 11 -15 6 -15 -5 0 -9 -7 -9 -15 0 -20 14 -19 26
3 6 9 11 12 11 7 0 -6 -5 -16 -10 -21 -7 -7 -4 -19 10 -36 16 -21 17 -27 5
-31 -10 -4 -12 -1 -8 11 6 15 5 16 -12 2 -11 -9 -16 -10 -11 -2 4 6 3 12 -3
12 -5 0 -10 -8 -10 -17 0 -10 -2 -27 -4 -38 -2 -11 4 -28 14 -38 14 -13 17
-26 13 -45 -10 -46 -9 -87 3 -85 6 1 17 -5 25 -15 11 -15 11 -16 -3 -5 -9 7
-19 10 -23 6 -4 -4 3 -12 15 -18 l21 -12 -21 -6 c-13 -3 -19 -1 -14 5 3 6 1 8
-5 4 -5 -3 -12 0 -15 6 -3 7 -4 3 -4 -9 1 -12 5 -19 9 -17 4 3 8 1 8 -5 0 -6
8 -8 18 -5 14 5 14 4 2 -4 -8 -6 -17 -9 -21 -6 -4 2 -10 0 -13 -5 -4 -5 5 -8
19 -6 24 2 25 1 11 -19 -8 -11 -20 -20 -26 -18 -6 1 -9 -2 -5 -8 4 -7 12 -7
25 0 29 15 32 12 10 -10 -22 -22 -26 -40 -9 -40 8 0 7 -6 -2 -17 -7 -10 -10
-15 -5 -11 8 7 46 -21 46 -35 0 -5 -7 -1 -16 8 -9 9 -19 14 -21 11 -3 -3 2
-12 11 -21 18 -18 21 -35 6 -35 -5 0 -9 6 -7 13 1 7 -6 11 -17 9 -12 -2 -16 1
-10 9 5 8 3 10 -6 4 -11 -7 -10 -10 1 -19 15 -12 26 -51 12 -43 -5 3 -15 -4
-23 -16 -11 -19 -11 -20 1 -11 8 6 23 14 34 17 20 7 20 7 1 -8 -11 -8 -16 -15
-12 -15 5 0 3 -6 -3 -14 -9 -11 -9 -16 0 -22 7 -4 9 -3 5 4 -3 6 -1 14 6 19
19 11 39 13 32 2 -3 -5 -10 -7 -15 -4 -5 4 -9 -2 -9 -12 0 -11 -6 -25 -12 -32
-11 -11 -10 -12 0 -7 10 6 11 1 7 -21 -3 -19 -3 -22 3 -10 7 17 23 25 21 11 0
-4 5 -11 13 -16 10 -8 10 -9 -3 -5 -16 5 -45 -30 -35 -41 3 -3 6 0 6 7 0 7 5
9 10 6 6 -4 7 -11 4 -17 -4 -7 -2 -8 4 -4 17 10 15 -6 -5 -33 -9 -14 -12 -22
-7 -19 5 3 15 0 22 -8 7 -8 9 -14 5 -14 -4 0 -9 -11 -9 -25 -1 -14 1 -23 5
-20 4 2 8 -3 8 -11 0 -10 -4 -11 -11 -4 -13 13 -26 13 -26 1 0 -5 10 -13 21
-16 12 -4 17 -10 12 -14 -6 -3 -13 -19 -17 -35 -7 -29 -7 -30 11 -10 10 11 15
15 10 8 -4 -6 -5 -20 -1 -30 3 -11 2 -15 -3 -8 -4 6 -17 8 -28 4 -17 -6 -16
-8 10 -14 l30 -8 -25 -13 c-14 -7 -28 -11 -32 -9 -4 3 -5 -2 -2 -10 3 -9 10
-16 16 -16 5 0 7 4 4 8 -2 4 5 9 17 9 21 2 21 1 -3 -18 -24 -20 -24 -21 -3
-16 20 4 21 3 12 -15 -8 -16 -8 -23 2 -29 7 -4 17 -5 21 -3 4 3 8 1 8 -4 0 -5
-11 -10 -25 -10 -13 0 -22 4 -19 9 3 5 0 9 -5 9 -16 0 -13 -20 4 -26 8 -4 12
-11 8 -17 -3 -6 -1 -7 5 -3 8 5 12 0 12 -13 0 -10 3 -21 8 -24 4 -2 2 -2 -5
-1 -7 2 -15 -2 -19 -8 -4 -7 -3 -8 4 -4 7 4 12 1 12 -8 0 -10 -6 -13 -17 -10
-15 5 -15 4 -3 -4 8 -6 17 -9 21 -6 4 2 11 -1 15 -7 4 -7 3 -9 -4 -5 -6 3 -14
1 -17 -4 -5 -8 -14 -5 -28 7 l-22 18 19 -23 c13 -15 26 -21 40 -17 12 3 15 2
9 -1 -15 -6 -18 -74 -4 -74 13 0 21 -39 9 -46 -7 -4 -1 -14 13 -26 20 -15 21
-17 4 -12 -16 6 -18 5 -7 -7 15 -16 16 -29 1 -29 -5 0 -7 5 -3 12 4 7 3 8 -4
4 -7 -4 -10 1 -7 13 2 11 -3 22 -11 25 -9 3 -12 11 -8 17 4 8 3 9 -5 5 -8 -5
-7 -13 3 -28 8 -11 12 -26 10 -33 -3 -7 2 -15 11 -19 9 -3 13 -11 10 -16 -5
-8 -12 -7 -23 2 -15 12 -16 11 -3 -5 13 -16 15 -16 32 -1 11 10 19 13 19 8 0
-5 5 -2 11 6 9 13 10 13 6 -1 -4 -11 3 -20 19 -27 14 -7 21 -17 18 -26 -3 -8
-1 -17 5 -21 7 -3 8 0 5 9 -4 11 0 14 16 11 19 -4 20 -2 8 12 -11 15 -11 16 5
10 16 -6 16 -5 1 17 -15 23 -14 24 9 22 20 -2 23 1 19 20 -2 14 -9 21 -16 17
-6 -3 -2 3 8 15 11 12 14 22 8 22 -7 0 -12 5 -12 12 0 9 3 9 12 0 15 -15 20
-44 6 -36 -7 4 -8 2 -4 -4 4 -6 14 -8 22 -5 13 5 13 7 2 14 -7 5 -9 9 -5 9 4
0 3 8 -2 18 -7 14 -6 19 4 19 8 0 11 -5 8 -11 -3 -7 -1 -6 7 1 16 15 4 34 -18
26 -9 -3 -14 -3 -10 1 5 6 14 9 48 15 3 1 -2 6 -10 12 -13 9 -13 10 1 6 9 -3
23 0 30 6 7 7 6 3 -4 -9 -20 -24 -22 -34 -6 -34 5 0 8 4 5 9 -8 13 21 34 36
26 7 -4 4 1 -6 9 -15 12 -17 19 -8 28 7 7 8 17 2 29 -7 12 -6 20 0 24 6 4 10
3 9 -2 -4 -22 3 -33 22 -33 11 0 17 5 14 10 -4 6 -11 8 -16 5 -5 -4 -6 2 -2
11 4 11 8 13 11 6 2 -7 11 -12 20 -12 14 0 15 2 3 9 -12 8 -12 13 3 35 18 28
35 33 54 14 9 -9 12 -9 12 0 0 7 -5 12 -11 12 -5 0 -7 4 -4 10 3 5 0 7 -8 4
-8 -3 -18 -1 -22 5 -3 6 0 9 8 5 9 -3 19 6 27 25 7 17 16 28 21 25 12 -7 11 3
-2 29 -10 21 -9 21 5 3 11 -13 22 -17 41 -12 14 4 23 11 20 15 -3 5 2 16 10
24 8 9 12 23 9 31 -3 9 -2 16 4 16 6 0 12 -6 15 -12 3 -7 4 -3 4 9 -1 15 -6
20 -19 18 -10 -2 -16 0 -13 6 4 5 11 7 16 4 5 -4 12 1 15 9 3 9 11 16 16 16 6
0 5 -6 -2 -15 -9 -10 -9 -15 -1 -15 6 0 11 3 12 8 0 4 2 15 4 24 2 10 -2 21
-7 25 -7 3 -8 1 -4 -5 4 -7 2 -12 -3 -12 -16 0 -13 16 6 31 9 8 14 9 10 3 -4
-7 0 -14 8 -18 8 -3 12 -12 9 -21 -3 -8 -2 -15 4 -15 11 0 11 18 -1 38 -5 6
-5 12 -1 12 3 0 0 8 -7 17 -8 10 -9 14 -2 10 6 -4 14 -3 18 3 3 5 2 10 -3 10
-5 0 -9 7 -9 16 0 15 2 14 13 -1 8 -10 11 -22 7 -27 -3 -6 4 -5 16 1 11 7 21
16 21 22 0 6 4 8 8 5 5 -3 9 1 9 8 0 7 -6 13 -13 13 -7 0 -13 -3 -12 -6 0 -3
0 -13 -1 -21 -1 -13 -2 -13 -11 0 -6 9 -5 20 3 29 10 12 9 14 -6 8 -11 -4 -16
-3 -12 4 4 5 16 7 28 4 21 -6 21 -6 3 9 -10 9 -23 13 -29 9 -6 -3 -7 -1 -3 5
8 13 56 -4 56 -20 0 -4 5 -8 12 -8 6 0 1 11 -12 25 -13 14 -19 25 -14 25 5 0
2 5 -6 10 -11 8 -8 9 13 6 30 -5 32 -3 16 26 -8 15 -8 23 1 32 8 8 9 6 4 -8
-6 -15 -4 -17 6 -11 8 5 11 4 6 -3 -3 -6 -2 -13 3 -16 5 -4 8 5 7 19 -4 32 20
66 32 47 7 -11 10 -10 16 3 3 9 10 14 15 10 5 -3 13 -1 16 5 4 6 1 9 -5 8 -15
-4 -37 28 -27 38 4 4 13 2 20 -6 10 -10 9 -11 -2 -5 -10 6 -12 4 -6 -5 6 -10
14 -7 31 13 12 14 25 23 30 19 4 -4 4 -1 -1 7 -7 12 -10 11 -22 -4 -7 -11 -13
-13 -13 -6 0 7 -5 9 -12 5 -8 -4 -10 -3 -5 2 5 5 14 9 20 9 7 1 11 7 9 13 -2
10 3 10 17 2 13 -7 22 -7 26 0 4 6 11 7 17 4 7 -4 8 -2 4 5 -6 9 -11 9 -24 -1
-13 -11 -15 -10 -9 5 4 11 3 16 -3 12 -5 -3 -18 -1 -27 5 -15 9 -14 10 6 4 14
-4 21 -2 18 3 -4 6 0 19 8 29 8 10 15 14 15 9 0 -6 -5 -16 -11 -22 -7 -7 -6
-12 5 -16 11 -4 13 -1 9 10 -4 11 -2 14 5 9 8 -5 10 -1 5 10 -4 11 -2 15 4 11
6 -4 10 1 9 11 0 9 4 16 10 15 6 -1 11 4 11 11 0 7 -6 13 -13 13 -7 0 -10 -5
-7 -10 3 -6 1 -7 -6 -3 -8 5 -7 15 6 36 9 16 20 25 23 20 6 -10 36 -8 47 5 4
4 2 5 -4 1 -8 -4 -13 -1 -13 9 0 9 4 14 9 11 5 -3 14 1 20 8 8 10 9 16 1 21
-6 3 -7 11 -4 17 4 6 10 5 15 -3 5 -8 9 -9 9 -3 0 6 -7 17 -16 24 -12 11 -15
11 -12 0 2 -7 -3 -14 -10 -16 -7 -1 -8 0 -2 3 5 2 8 9 5 13 -3 5 4 14 15 20
11 6 18 15 15 20 -3 6 1 7 9 4 14 -6 21 5 17 28 0 5 4 8 10 8 5 0 8 4 5 9 -12
18 28 22 42 4 11 -16 12 -15 9 7 -5 31 10 63 25 54 6 -4 8 -3 5 3 -4 6 -1 16
7 22 7 6 12 22 11 36 -2 13 4 30 13 37 13 11 14 11 7 -2 -15 -25 -14 -38 4
-35 9 2 19 4 24 4 4 1 7 6 7 12 0 8 -5 8 -15 -1 -10 -9 -15 -9 -15 -1 0 6 5
11 11 11 5 0 7 6 3 13 -6 9 -5 9 7 0 12 -10 18 -10 27 -1 9 9 15 9 24 0 7 -7
23 -12 36 -12 15 0 21 -4 16 -12 -4 -7 -3 -8 4 -4 29 17 53 15 62 -7 7 -18 9
-19 9 -4 1 11 5 15 13 11 7 -4 8 -3 4 5 -4 6 -10 9 -14 7 -4 -2 -8 8 -8 22 -2
26 -1 26 9 4 11 -24 28 -28 58 -12 10 6 19 8 19 6 0 -3 -12 -12 -26 -19 -17
-9 -23 -17 -15 -21 6 -4 11 -2 11 4 0 6 4 9 9 6 11 -7 43 28 34 37 -3 4 -2 7
4 7 6 0 11 -12 11 -26 0 -14 -3 -21 -7 -15 -4 6 -11 3 -19 -9 -7 -12 -8 -20
-2 -20 5 0 10 5 10 11 0 5 4 8 9 5 13 -8 29 16 26 41 -1 12 2 20 7 17 5 -3 8
-11 7 -17 -1 -7 3 -23 10 -37 11 -24 11 -24 5 5 -3 16 -2 27 2 23 3 -4 15 -3
25 3 13 6 19 6 19 -1 0 -5 -7 -10 -15 -10 -18 0 -20 -16 -3 -26 7 -5 8 -3 3 6
-5 8 -4 11 2 7 6 -4 18 2 28 13 10 11 23 20 28 20 6 0 3 -6 -7 -13 -16 -12
-16 -14 4 -32 18 -16 23 -17 30 -5 8 13 10 13 10 0 0 -13 1 -13 11 0 9 13 10
13 6 0 -2 -8 -17 -15 -35 -16 -19 -1 -29 3 -25 9 4 6 1 7 -7 2 -8 -5 -11 -4
-7 2 3 5 0 10 -8 10 -8 0 -15 -3 -15 -6 0 -12 35 -28 58 -26 12 1 22 -3 22 -9
0 -6 4 -4 10 4 11 17 21 10 23 -18 0 -11 5 -19 9 -16 4 3 5 11 2 18 -3 8 3 12
18 11 15 -1 22 -8 21 -20 -1 -12 2 -14 10 -6 7 7 6 15 -3 26 -16 20 -6 19 15
-1 11 -12 19 -13 29 -5 13 11 26 5 26 -11 0 -5 -4 -7 -9 -3 -5 3 -12 1 -15 -4
-4 -5 1 -8 10 -7 9 1 21 10 26 19 8 16 11 16 31 2 28 -20 46 -19 21 1 -17 14
-17 15 -1 10 10 -3 16 -2 13 3 -6 9 -86 8 -102 -1 -6 -4 -11 -2 -11 5 0 8 18
12 50 13 30 0 53 6 59 15 8 12 9 11 5 -1 -3 -9 1 -24 9 -34 7 -11 11 -23 8
-27 -3 -5 0 -9 5 -9 6 0 11 4 11 8 0 17 41 9 55 -11 17 -25 20 -15 4 15 -7 12
-7 18 -1 14 6 -3 12 -3 15 1 2 5 2 3 1 -4 -2 -7 1 -15 7 -19 6 -3 8 -12 5 -20
-8 -22 2 -17 15 7 8 15 8 19 0 15 -6 -4 -11 -2 -11 3 0 12 27 10 48 -3 7 -4
11 -15 8 -23 -3 -8 -1 -11 4 -8 6 3 10 12 10 20 0 8 5 17 12 21 7 5 8 3 3 -6
-6 -10 -4 -12 9 -7 10 4 20 7 22 7 3 0 2 6 -2 12 -6 11 -4 11 7 1 20 -19 34
-16 18 4 -10 11 -10 14 -1 9 7 -4 12 -2 12 6 0 9 3 10 8 2 4 -6 14 -10 23 -9
9 2 16 -4 16 -12 0 -9 -7 -13 -18 -10 -10 3 -20 0 -22 -7 -3 -7 7 -11 27 -10
38 2 52 -6 35 -18 -10 -6 -7 -7 10 -3 17 5 22 4 16 -5 -6 -9 -4 -11 5 -5 10 6
7 12 -11 26 -13 9 -27 15 -31 13 -4 -3 -4 6 1 19 6 14 7 28 3 33 -4 4 -2 4 5
1 6 -4 9 -17 5 -29 -4 -16 -2 -19 8 -13 8 5 11 4 7 -1 -3 -6 3 -15 14 -22 15
-10 19 -10 19 0 0 9 3 8 10 -2 6 -10 10 -11 10 -3 0 7 6 12 13 10 6 -1 11 4 9
11 -1 8 2 11 9 6 9 -5 5 -13 -10 -26 -13 -10 -27 -15 -32 -12 -12 7 -11 -7 1
-26 8 -13 10 -12 10 4 0 11 3 16 7 13 3 -4 13 -1 21 6 13 10 14 9 8 -2 -6 -9
-4 -12 5 -9 8 3 14 10 14 16 0 7 3 12 8 12 4 0 10 0 13 0 4 0 -2 -12 -11 -27
-18 -28 -18 -28 2 -10 11 9 23 14 28 10 4 -5 5 0 2 9 -7 20 8 34 19 17 5 -8 3
-9 -6 -4 -8 5 -11 4 -6 -3 4 -6 13 -9 22 -5 11 4 12 9 3 19 -6 8 -7 14 -3 14
5 0 15 -9 22 -21 8 -12 9 -18 4 -15 -5 3 -18 -4 -28 -17 l-19 -22 22 18 c13
11 23 14 27 8 4 -6 14 -7 23 -4 10 4 14 2 10 -4 -3 -5 0 -10 8 -10 9 0 11 4 6
11 -5 6 -5 20 0 31 9 20 9 20 6 0 -2 -11 2 -26 10 -33 7 -7 10 -18 7 -24 -4
-7 -2 -8 4 -4 9 5 9 13 2 26 -13 24 -13 27 5 27 8 0 12 -4 9 -9 -3 -4 0 -8 6
-8 6 0 9 -4 6 -9 -4 -5 2 -8 11 -6 10 2 22 4 26 4 5 1 6 5 2 10 -3 5 0 13 7
17 7 4 10 4 6 -1 -4 -4 2 -16 13 -26 16 -14 26 -16 40 -9 24 13 32 13 23 -2
-5 -9 -3 -9 9 1 9 7 14 17 11 22 -3 5 -1 9 5 9 5 0 9 -9 8 -19 0 -11 -5 -17
-9 -15 -4 3 -8 0 -8 -6 0 -7 6 -10 14 -7 8 3 20 -1 27 -9 8 -10 15 -11 24 -4
7 5 24 11 38 12 14 1 23 6 20 11 -3 4 3 7 12 5 10 -2 20 4 22 12 4 13 3 13 -6
0 -8 -11 -11 -12 -11 -2 0 10 -5 10 -22 -2 -26 -18 -38 -20 -38 -6 0 5 5 9 12
7 7 -1 12 3 13 10 0 6 4 15 9 20 5 4 6 3 2 -4 -4 -8 1 -11 14 -10 14 1 19 6
15 17 -3 8 8 -1 26 -20 17 -19 26 -28 20 -19 -9 13 -8 19 3 28 11 10 17 8 25
-6 6 -10 11 -13 11 -8 0 6 -5 16 -12 23 -7 7 -9 12 -5 12 4 0 3 9 -3 19 -7 14
-7 22 0 26 6 4 9 3 8 -2 -1 -4 2 -19 6 -32 6 -18 10 -20 17 -10 4 8 3 19 -4
28 -10 12 -9 14 8 7 11 -4 16 -4 13 0 -4 3 -1 13 7 21 18 17 19 33 4 33 -5 0
-8 -4 -4 -9 3 -5 1 -12 -5 -16 -5 -3 -10 3 -10 14 0 12 4 21 8 21 6 0 8 70 2
78 -2 1 -3 6 -4 11 0 5 -5 13 -10 18 -5 4 -6 3 -3 -3 4 -7 0 -17 -9 -24 -13
-12 -14 -10 -10 13 4 21 1 25 -15 22 -23 -5 -69 14 -69 27 0 5 11 1 24 -7 19
-13 26 -14 32 -3 4 7 4 10 -1 6 -14 -13 -47 12 -40 30 3 9 -6 4 -20 -13 -14
-16 -22 -23 -19 -14 4 13 -1 16 -26 14 -25 -2 -28 0 -19 11 6 8 15 11 20 8 5
-3 9 0 9 5 0 14 -27 14 -35 1 -3 -5 -12 -10 -18 -10 -9 0 -9 2 0 8 6 4 10 19
10 34 -1 14 -5 24 -9 21 -5 -2 -8 1 -8 6 0 8 -7 7 -19 -1 -11 -7 -18 -15 -16
-18 2 -4 -2 -7 -10 -7 -11 0 -12 4 -4 14 9 10 4 21 -18 45 -16 18 -36 34 -44
36 -9 1 -8 -2 4 -12 11 -8 14 -17 8 -20 -5 -4 -12 -2 -16 4 -3 5 -11 10 -16
10 -6 0 -7 -6 -3 -12 5 -9 2 -9 -9 1 -18 15 -23 37 -8 43 5 2 3 9 -5 16 -8 7
-14 8 -14 2 0 -5 -5 -10 -11 -10 -5 0 -7 5 -4 10 3 6 1 10 -4 10 -6 0 -11 -4
-11 -10 0 -5 -5 -10 -10 -10 -7 0 -7 7 1 21 8 16 8 24 -1 33 -8 8 -10 7 -4 -7
5 -13 2 -16 -10 -11 -9 3 -14 10 -11 14 3 5 -6 7 -20 5 -15 -1 -25 3 -25 10 0
7 -7 16 -16 19 -8 3 -13 10 -10 15 4 5 -2 8 -11 6 -10 -1 -35 6 -55 16 -27 14
-36 24 -33 39 2 11 -1 22 -6 26 -5 3 -8 0 -7 -7 2 -6 -3 -14 -11 -17 -8 -3
-11 0 -7 7 5 7 1 9 -11 4 -15 -6 -16 -4 -5 9 18 23 -8 30 -43 12 -25 -13 -26
-13 -14 2 12 15 11 16 -10 9 -17 -5 -22 -4 -18 6 5 15 9 15 42 4 20 -6 20 -6
1 6 -23 14 -89 21 -81 8 4 -5 -1 -6 -9 -3 -9 3 -16 10 -16 16 0 5 4 7 9 4 5
-3 14 1 21 9 9 10 9 15 1 15 -6 0 -11 -5 -11 -11 0 -5 -5 -7 -10 -4 -8 5 -7
12 2 23 12 15 11 16 -4 3 -10 -7 -16 -17 -13 -21 3 -5 1 -12 -5 -15 -6 -4 -10
-3 -9 2 3 19 -2 30 -16 31 -8 1 -21 3 -29 4 -8 1 -14 4 -13 7 1 3 -3 7 -8 9
-6 2 -20 12 -32 24 -12 11 -27 17 -35 13 -7 -3 -4 1 6 9 11 9 16 16 12 16 -5
0 -3 7 4 15 12 15 11 16 -10 19 -6 0 -15 8 -20 16 -5 8 -10 10 -10 5 0 -6 5
-16 11 -22 9 -9 7 -12 -9 -10 -11 0 -18 5 -16 9 3 4 0 8 -5 8 -6 0 -11 5 -11
11 0 5 4 8 8 5 5 -3 9 1 9 9 0 8 -5 11 -10 8 -7 -4 -8 1 -4 13 7 19 7 19 -8 0
-14 -19 -15 -18 -24 5 -10 24 -10 24 -8 -4 1 -22 6 -27 19 -24 10 3 16 1 12
-4 -8 -14 -24 -11 -51 11 -14 11 -30 17 -36 13 -5 -3 -7 -2 -4 4 4 5 -5 16
-18 23 -14 7 -25 17 -25 22 0 5 -4 6 -10 3 -5 -3 -10 -1 -10 4 0 17 15 13 35
-9 15 -16 21 -18 33 -7 13 10 15 9 9 -5 -4 -12 0 -21 13 -28 14 -7 20 -7 20 0
0 5 -8 10 -17 11 -15 0 -15 2 2 9 11 5 14 9 7 9 -7 1 -11 5 -8 10 7 11 -13 9
-33 -3 -11 -7 -13 -5 -8 7 4 11 2 14 -8 11 -8 -3 -12 1 -12 12 1 9 -5 19 -13
21 -13 4 -13 3 0 -6 8 -5 12 -13 8 -16 -3 -3 -12 1 -21 9 -8 8 -18 12 -23 8
-5 -4 -2 1 5 11 8 10 9 17 3 17 -6 0 -14 9 -17 20 -6 20 -7 20 -27 -3 -21 -23
-22 -23 -40 -5 -22 22 -24 36 -3 18 19 -16 20 -3 1 15 -12 12 -15 12 -20 -1
-7 -19 -38 -4 -42 20 -1 9 1 14 5 12 4 -3 13 0 21 5 11 7 9 8 -8 6 -13 -2 -27
-9 -32 -17 -5 -9 -8 -5 -7 13 1 14 5 23 10 20 4 -2 7 4 7 13 0 17 1 16 13 -1
11 -14 16 -15 22 -5 5 9 4 11 -3 6 -7 -4 -12 -1 -12 9 0 11 5 15 16 11 9 -3
12 -2 9 5 -4 5 -15 7 -26 4 -11 -4 -19 -2 -19 5 0 6 4 9 9 6 5 -3 11 1 15 9 3
8 15 15 26 15 11 0 20 5 20 11 0 5 4 7 10 4 6 -3 7 1 4 9 -7 18 -25 22 -22 5
2 -6 -4 -14 -12 -17 -12 -4 -12 -1 2 19 9 13 22 23 28 21 6 -1 9 2 6 7 -4 5
-2 12 4 16 5 3 10 1 10 -6 0 -7 3 -10 6 -6 3 3 3 11 -1 16 -4 8 -13 6 -28 -4
-12 -8 -26 -15 -32 -15 -5 0 6 10 25 21 19 12 46 33 60 47 25 26 11 22 -25 -7
-19 -15 -19 -15 -5 3 14 18 13 19 -3 13 -11 -4 -16 -3 -12 3 4 6 14 9 23 8 10
-2 16 3 14 11 -2 8 3 11 10 8 7 -3 22 -8 33 -12 18 -7 18 -6 4 6 -21 18 -30
57 -17 66 7 3 8 1 4 -5 -4 -7 -3 -12 3 -12 15 0 26 23 13 28 -7 2 -12 9 -12
15 0 6 12 0 26 -14 l27 -24 -18 28 c-10 15 -15 30 -11 34 3 3 6 1 6 -6 0 -7 5
-9 12 -5 6 4 8 3 4 -4 -3 -6 -1 -14 6 -18 7 -4 10 -4 6 1 -4 4 0 14 10 22 9 8
11 12 5 8 -7 -3 -13 -1 -13 5 0 6 -4 8 -10 5 -5 -3 -10 -1 -10 6 0 7 10 9 23
7 21 -4 24 -1 21 23 -2 16 2 31 8 35 6 4 8 3 4 -4 -3 -6 -1 -14 5 -18 8 -5 9
-3 4 6 -6 10 -4 12 8 7 9 -3 19 -1 23 6 4 7 4 9 -1 5 -11 -10 -47 11 -39 23 4
6 11 6 20 -2 12 -10 13 -8 8 7 -6 16 -5 17 7 7 7 -7 17 -13 23 -13 5 0 1 6 -9
14 -11 8 -26 12 -35 10 -8 -3 -5 1 8 7 12 7 22 21 22 33 0 15 -3 17 -12 8 -7
-7 -16 -12 -22 -12 -5 0 -1 6 10 14 21 16 49 3 37 -17 -3 -6 -1 -7 5 -3 6 4 9
13 6 21 -4 10 0 13 16 10 13 -2 20 -2 17 2 -10 10 13 44 26 37 7 -3 -1 6 -16
20 -15 14 -22 26 -15 26 9 0 9 3 -2 11 -13 9 -13 10 0 6 8 -2 14 -10 12 -16
-1 -7 2 -10 8 -6 5 3 10 15 10 25 0 10 4 21 9 25 6 3 8 14 6 24 -2 10 3 18 11
18 16 0 19 -13 5 -19 -5 -1 -2 -9 6 -17 12 -11 14 -11 12 0 -3 28 2 39 19 39
14 0 15 2 2 9 -8 6 -17 8 -21 5 -4 -2 -4 6 -1 18 5 20 7 20 10 5 4 -18 4 -18
18 0 13 16 13 16 8 1 -3 -10 -1 -18 4 -18 6 0 9 14 7 31 -4 28 -3 29 12 17 14
-11 16 -11 8 2 -8 12 -16 90 -9 90 1 0 8 -8 15 -17 8 -9 9 -14 3 -10 -6 3 -11
0 -11 -7 0 -7 6 -13 13 -13 6 0 11 7 9 16 -1 9 2 22 8 29 7 9 5 11 -8 6 -13
-5 -16 -4 -11 5 5 7 18 10 30 7 19 -4 19 -4 4 7 -15 12 -13 14 12 25 19 9 28
20 27 37 0 14 -4 22 -9 19 -5 -3 -7 -13 -3 -23 5 -13 4 -14 -6 -3 -11 10 -10
16 4 30 16 15 19 15 28 2 9 -13 10 -13 6 0 -2 8 0 23 4 32 6 10 5 19 -1 23
-13 8 -1 35 15 35 8 0 17 5 21 12 4 7 3 8 -4 4 -8 -5 -12 1 -11 16 0 13 3 17
6 11 2 -7 9 -13 14 -13 6 0 6 7 0 19 -9 16 -8 18 9 14 15 -4 19 -2 14 10 -3 8
0 18 7 23 8 4 10 3 5 -4 -11 -18 0 -14 15 5 10 11 10 14 2 9 -7 -4 -13 -2 -13
3 0 6 5 11 10 11 6 0 10 5 10 11 0 5 -5 7 -11 3 -6 -3 -4 5 5 18 9 14 14 27
11 30 -3 2 2 5 10 5 13 0 13 -3 0 -23 -11 -17 -12 -25 -3 -30 6 -4 8 -3 4 4
-3 6 2 15 11 21 10 6 14 11 9 11 -5 0 -2 8 5 17 10 11 10 14 2 9 -19 -11 -15
5 4 19 14 11 15 16 5 28 -11 13 -10 15 7 10 17 -4 21 -1 21 16 0 14 -4 20 -12
15 -7 -4 -8 -3 -4 4 10 17 36 3 29 -16 -4 -14 -3 -15 5 -2 7 8 7 19 2 25 -13
16 4 37 23 29 13 -5 16 -2 10 12 -5 13 -3 15 7 9 9 -5 11 -4 6 4 -6 9 -11 9
-23 -1 -15 -12 -15 -11 -3 9 9 14 18 19 25 13 8 -6 10 0 9 20 -1 17 2 30 8 30
5 0 6 5 3 10 -3 6 -1 10 5 10 7 0 10 -6 7 -13 -3 -8 -1 -20 4 -28 8 -11 9 -9
7 6 -2 11 2 19 9 18 8 -2 10 4 6 14 -4 9 -2 14 3 10 6 -3 11 3 11 14 2 21 -12
26 -23 7 -5 -7 -3 -8 6 -3 9 5 11 4 6 -3 -11 -19 -25 -14 -23 7 0 11 4 18 8
15 9 -5 17 27 12 44 -3 6 -9 12 -14 12 -6 0 -7 -4 -4 -10 3 -5 1 -10 -4 -10
-10 0 -15 14 -12 33 0 4 -4 7 -10 7 -5 0 -7 5 -3 12 5 7 3 8 -5 4 -7 -5 -10
-14 -7 -22 7 -19 0 -18 -23 5 -11 11 -16 23 -13 27 4 4 0 3 -8 -2 -22 -13 -43
-11 -65 6 -19 14 -19 14 -5 -4 14 -18 13 -19 -2 -13 -11 4 -15 2 -12 -7 3 -7
11 -13 19 -13 8 0 12 3 10 7 -2 4 9 7 26 6 20 -1 34 -8 40 -21 9 -17 8 -18 -3
-5 -15 18 -48 25 -48 11 0 -16 -44 -8 -60 11 -11 14 -19 15 -30 7 -13 -9 -12
-10 3 -5 10 3 20 0 22 -7 9 -28 9 -46 0 -44 -5 1 -9 4 -8 7 3 11 -46 40 -52
30 -4 -6 -1 -9 7 -8 7 2 12 -3 10 -10 -1 -8 2 -11 8 -7 5 3 10 2 10 -2 0 -8
-60 -35 -85 -39 -5 -1 -14 -2 -19 -3 -5 0 -3 -7 3 -15 10 -12 8 -17 -11 -27
-13 -7 -24 -12 -25 -11 -2 1 -6 2 -10 1 -5 0 1 -4 12 -9 16 -7 17 -9 3 -9 -9
-1 -20 4 -23 10 -9 14 -38 -28 -32 -45 6 -15 -9 -16 -30 -3 -7 5 -13 4 -13 -2
0 -5 10 -13 22 -17 20 -6 20 -7 3 -17 -14 -7 -21 -6 -32 9 -7 10 -13 12 -13 6
0 -16 -17 -15 -23 1 -2 6 -3 4 -2 -5 2 -10 -1 -21 -6 -24 -8 -5 -13 9 -10 29
0 4 -3 7 -8 7 -16 0 -19 -24 -5 -41 12 -13 12 -16 -1 -16 -8 0 -12 4 -10 8 3
4 -2 10 -11 13 -9 3 -12 11 -8 18 4 7 4 10 -1 6 -4 -4 -13 -3 -20 2 -8 7 -12
5 -12 -5 0 -8 5 -11 10 -8 6 4 8 -1 4 -11 -4 -9 -3 -14 2 -11 5 3 12 1 15 -4
8 -12 -13 -8 -41 7 -20 11 -22 10 -16 -4 4 -11 2 -15 -4 -11 -6 4 -14 0 -17
-9 -6 -15 -4 -15 18 -1 20 14 25 14 30 2 3 -10 0 -12 -11 -8 -11 4 -14 2 -9
-5 5 -8 2 -10 -9 -6 -12 5 -14 2 -8 -12 4 -12 -3 -8 -21 11 -15 17 -25 24 -21
18 3 -7 0 -13 -7 -13 -10 0 -10 -2 1 -9 9 -6 10 -11 2 -15 -6 -4 -15 -5 -20
-2 -5 4 -7 -4 -3 -16 3 -12 7 -17 10 -10 2 7 13 17 24 23 18 10 18 9 8 -10
-10 -20 -22 -26 -44 -22 -5 1 -6 -5 -3 -12 4 -11 0 -13 -16 -10 -21 4 -21 4
-4 -10 15 -13 15 -15 2 -20 -8 -4 -14 -1 -12 6 1 7 -4 11 -12 9 -12 -3 -12 -1
0 14 13 15 12 16 -11 10 -19 -6 -21 -5 -10 3 12 8 12 11 1 11 -10 0 -11 3 -2
14 9 11 9 16 0 22 -7 4 -9 3 -5 -4 3 -6 2 -13 -4 -17 -6 -4 -7 -11 -4 -17 5
-7 1 -9 -9 -5 -16 6 -16 4 -1 -17 11 -18 12 -26 3 -32 -7 -4 -9 -3 -6 3 4 6
-2 20 -12 32 -16 18 -20 19 -25 6 -3 -9 -2 -13 4 -10 6 3 10 1 10 -4 0 -6 -9
-11 -21 -11 -13 0 -18 4 -13 12 4 7 3 8 -4 4 -7 -4 -12 -2 -12 4 0 15 -34 -19
-36 -36 -1 -8 2 -12 7 -8 5 3 7 9 4 14 -9 14 23 19 35 5 8 -10 8 -15 -1 -21
-8 -5 -9 -3 -4 6 5 8 3 11 -6 8 -8 -3 -13 -11 -11 -17 1 -6 -4 -10 -10 -9 -7
2 -12 -2 -11 -9 2 -7 -6 -17 -17 -23 -14 -7 -20 -7 -20 0 0 5 7 10 16 10 8 0
12 5 9 10 -4 6 -11 7 -17 4 -6 -4 -6 1 1 14 14 26 14 32 1 32 -6 0 -9 -3 -9
-7 4 -24 -3 -35 -17 -29 -10 4 -13 2 -8 -6 5 -8 2 -9 -9 -5 -9 3 -16 3 -16 -1
3 -20 -2 -25 -12 -12 -8 12 -9 10 -4 -9 4 -13 3 -21 -2 -18 -5 3 -15 2 -23 -4
-11 -6 -12 -9 -2 -9 7 0 10 -5 7 -10 -4 -6 -10 -8 -15 -5 -13 8 -42 -26 -36
-42 3 -8 1 -11 -4 -8 -39 24 -87 7 -70 -25 7 -13 6 -21 -2 -26 -6 -4 -8 -3 -4
4 3 6 -1 17 -9 26 -9 9 -11 17 -5 21 5 3 10 10 10 15 0 4 -14 -5 -31 -21 -18
-16 -34 -27 -37 -25 -10 10 -43 -16 -38 -29 3 -8 0 -17 -6 -21 -7 -5 -8 -2 -3
6 6 10 4 12 -7 7 -9 -3 -21 0 -28 6 -10 9 -11 9 -6 0 4 -7 -2 -17 -14 -23 -15
-8 -20 -8 -20 2 0 9 -3 9 -10 -2 -12 -18 -14 -40 -2 -25 9 13 39 18 46 7 4 -7
-12 -11 -59 -12 l-20 -1 20 -16 c20 -15 20 -15 -3 -8 -12 3 -21 3 -20 -2 2 -4
0 -9 -4 -10 -17 -6 -20 -2 -9 11 9 10 8 15 -3 19 -8 3 -13 -1 -12 -11 1 -12
-6 -16 -24 -15 -14 1 -18 0 -7 -3 9 -3 17 -10 17 -15 0 -6 5 -7 12 -3 7 4 8 3
4 -5 -4 -6 -11 -9 -15 -7 -4 3 -13 1 -21 -5 -13 -7 -13 -9 0 -9 8 0 21 -9 28
-20 12 -21 12 -21 -13 -4 -14 9 -28 14 -32 10 -3 -3 -1 -6 5 -6 7 0 11 -3 11
-7 -3 -20 2 -33 12 -33 8 0 7 6 -2 18 -11 15 -11 15 7 -1 19 -18 19 -18 0 -33
-11 -8 -14 -14 -7 -14 7 0 9 -5 6 -10 -4 -6 -10 -8 -15 -5 -4 3 -14 -3 -21
-12 -10 -12 -10 -14 -1 -9 7 4 12 2 12 -4 0 -7 -8 -9 -21 -5 -15 5 -19 4 -14
-5 4 -7 -4 -5 -17 4 -14 9 -27 15 -29 14 -3 -2 4 5 16 16 20 19 20 19 -5 11
-22 -7 -23 -6 -11 9 12 14 12 16 -3 10 -9 -3 -23 -1 -30 5 -10 8 -16 9 -21 1
-3 -5 -1 -10 6 -10 7 0 10 -3 6 -6 -3 -3 -16 1 -29 10 -12 9 -18 16 -13 17 6
0 18 2 27 4 10 2 20 -1 24 -6 3 -5 10 -9 15 -9 6 0 4 6 -3 14 -8 7 -25 13 -38
12 -13 0 -25 6 -27 14 -3 10 -2 11 4 4 5 -7 16 -8 28 -3 l20 8 -20 1 c-11 1
-28 3 -38 5 -12 2 -17 -1 -14 -9 3 -7 0 -13 -7 -13 -7 0 -12 10 -11 21 3 24
-13 48 -26 40 -5 -3 -6 2 -3 10 5 12 9 11 25 -5 11 -11 17 -25 13 -30 -4 -7 1
-7 15 0 11 7 21 14 21 17 0 3 -4 3 -8 0 -4 -2 -30 19 -57 47 -28 28 -40 43
-27 33 13 -12 22 -14 22 -7 0 7 5 9 11 5 8 -4 7 -9 -2 -16 -11 -7 -9 -8 4 -4
10 3 21 6 23 6 2 0 4 5 4 11 0 5 -5 7 -12 3 -7 -5 -9 -2 -5 9 4 11 2 14 -7 11
-16 -6 -25 6 -31 37 -6 31 -12 34 -20 10 -3 -12 -11 -21 -17 -21 -6 0 -6 6 2
15 10 12 10 18 -1 31 -12 15 -11 16 9 10 l23 -8 -23 24 c-13 14 -26 23 -30 21
-5 -2 -8 8 -8 22 0 17 4 24 12 19 7 -4 8 -3 4 5 -6 9 -11 9 -22 1 -7 -7 -19
-10 -26 -7 -9 4 -7 6 3 6 9 1 20 8 23 17 3 8 10 12 16 9 16 -10 11 1 -7 16 -9
8 -14 9 -10 3 4 -7 1 -17 -7 -23 -12 -10 -13 -6 -6 24 8 36 -6 64 -52 106 -17
16 -17 18 -3 33 9 9 13 16 8 16 -5 0 -14 -5 -21 -12 -15 -15 -15 -3 -1 25 7
12 8 19 4 15 -5 -5 -15 1 -23 13 -10 15 -17 18 -25 10 -6 -6 -16 -11 -21 -11
-6 0 -3 5 7 11 26 15 21 32 -5 18 -21 -11 -22 -11 -9 5 12 14 12 19 1 29 -10
10 -11 9 -5 -3 8 -13 6 -13 -7 -2 -10 8 -14 20 -11 30 6 15 5 15 -10 3 -15
-12 -17 -12 -11 3 4 11 13 15 26 10 14 -4 18 -2 14 5 -4 6 -14 11 -22 11 -8 0
-14 5 -14 11 0 5 -4 8 -9 4 -6 -3 -8 6 -5 20 3 20 1 23 -13 19 -10 -3 -7 1 6
9 18 11 20 16 10 20 -9 4 -11 8 -3 14 7 5 4 14 -7 25 -12 12 -19 13 -22 5 -2
-7 -8 -9 -12 -5 -4 4 -2 15 6 25 12 14 12 16 0 8 -11 -6 -13 -4 -8 8 4 11 1
17 -8 17 -19 0 -19 10 2 40 17 24 16 25 -2 10 -17 -14 -18 -13 -13 2 7 17 -14
20 -29 3 -4 -4 -2 -5 4 -1 9 5 11 2 7 -8 -3 -9 -10 -16 -16 -16 -5 0 -6 5 -2
12 5 8 1 9 -12 5 -18 -7 -18 -6 -1 7 22 17 22 30 0 22 -10 -4 -14 -4 -11 0 4
3 -4 23 -17 44 -16 25 -20 41 -14 47 7 7 5 16 -6 27 -9 9 -11 16 -5 16 8 0 8
6 0 20 -6 11 -16 17 -22 14 -7 -4 -8 -3 -4 4 10 17 45 -8 41 -29 -3 -13 1 -16
13 -12 11 5 12 8 4 11 -10 3 -10 7 -1 19 8 8 8 13 2 11 -6 -2 -11 2 -11 7 0 6
4 9 10 7 5 -1 6 2 3 8 -4 6 -10 9 -13 6 -3 -3 -12 0 -20 7 -13 9 -14 9 -8 0 4
-7 2 -13 -3 -13 -14 0 -14 16 -1 41 8 14 8 19 -2 17 -6 -2 -12 2 -13 9 0 7 -5
17 -12 24 -6 6 -9 18 -5 27 3 10 -3 7 -17 -7 -24 -24 -42 -20 -36 9 2 11 -1
22 -6 26 -5 3 -7 15 -3 26 4 14 2 18 -5 14 -7 -4 -9 -1 -5 8 5 14 8 14 21 1
18 -19 20 -19 20 -1 0 8 -3 15 -6 14 -19 -2 -22 4 -10 19 13 16 13 16 -11 0
-30 -21 -44 -22 -37 -2 6 15 -8 31 -16 18 -2 -5 -2 -3 -1 4 2 6 -5 13 -14 15
-13 3 -12 5 6 10 14 4 20 2 15 -4 -4 -7 -1 -8 7 -3 9 6 11 4 5 -5 -5 -8 -4
-11 3 -6 7 4 10 -1 7 -14 -2 -11 0 -18 6 -15 5 4 7 11 4 16 -4 5 0 9 7 9 7 0
1 10 -14 21 -18 13 -25 27 -23 40 3 17 1 19 -10 9 -9 -7 -15 -8 -20 0 -3 5 0
10 7 10 7 1 2 7 -12 15 -14 7 -24 16 -22 19 1 3 -1 6 -4 5 -16 -2 -21 26 -7
36 13 10 13 14 3 20 -9 6 -11 4 -5 -5 6 -10 4 -12 -7 -7 -9 3 -25 -1 -36 -9
-15 -10 -23 -11 -28 -3 -4 7 -3 9 3 6 12 -7 40 24 40 45 0 16 -20 18 -33 5 -4
-4 -12 -2 -19 3 -7 6 -15 6 -22 -1z m14 -18 c0 -11 -5 -18 -9 -15 -4 3 -5 11
-1 19 7 21 12 19 10 -4z m47 10 c3 -5 -1 -14 -8 -20 -11 -9 -16 -9 -22 0 -4 8
-3 9 4 5 7 -4 12 -1 12 8 0 18 6 21 14 7z m-98 -68 c-3 -4 -6 -1 -6 6 0 7 -4
9 -10 6 -6 -4 -7 1 -3 11 6 15 7 15 15 -1 6 -9 7 -19 4 -22z m-34 -26 c-5 -18
-7 -19 -10 -4 -2 9 -10 17 -19 17 -12 0 -13 3 -4 13 6 8 7 18 3 23 -4 5 3 1
14 -9 15 -13 20 -25 16 -40z m82 41 c-3 -4 -11 -5 -19 -1 -21 7 -19 12 4 10
11 0 18 -5 15 -9z m76 8 c0 -2 -8 -10 -17 -17 -16 -13 -17 -12 -4 4 13 16 21
21 21 13z m25 -45 c-3 -6 3 -14 12 -20 10 -6 14 -11 9 -11 -5 0 -3 -7 4 -15 7
-8 16 -13 19 -10 4 2 8 -2 8 -9 0 -7 -6 -13 -13 -13 -7 0 -12 5 -11 11 1 6 -4
10 -10 9 -7 -2 -12 0 -12 5 3 19 -2 33 -10 28 -5 -4 -8 2 -6 11 5 24 4 23 11
23 3 0 3 -4 -1 -9z m-35 -25 c-7 -7 -13 -7 -20 0 -6 6 -3 10 10 10 13 0 16 -4
10 -10z m-119 -13 c13 -16 12 -17 -3 -4 -10 7 -18 15 -18 17 0 8 8 3 21 -13z
m-82 -42 c6 -10 7 -21 4 -25 -3 -3 -1 -6 6 -6 7 0 10 -4 6 -9 -3 -5 3 -12 12
-14 15 -4 15 -5 2 -6 -9 0 -24 10 -33 24 -9 14 -14 25 -10 25 4 0 1 7 -6 15
-8 10 -9 15 -2 15 6 0 16 -8 21 -19z m33 -85 c7 4 8 2 4 -4 -4 -6 -13 -9 -21
-6 -8 4 -12 11 -8 17 5 8 8 7 11 -1 2 -7 9 -9 14 -6z m31 -41 c-3 -9 -8 -14
-10 -11 -3 3 -2 9 2 15 9 16 15 13 8 -4z m342 -85 c-3 -5 -1 -11 5 -15 13 -8
13 -25 0 -25 -5 0 -10 6 -10 14 0 8 -9 18 -21 21 -16 5 -18 9 -8 21 9 11 15
11 25 3 8 -6 12 -15 9 -19z m-15 -26 c0 -8 -19 -13 -24 -6 -3 5 1 9 9 9 8 0
15 -2 15 -3z m-335 -83 c-3 -5 2 -12 10 -14 12 -4 12 -5 -1 -3 -19 1 -32 26
-14 26 6 0 9 -4 5 -9z m25 -65 c0 -2 -8 -10 -17 -17 -16 -13 -17 -12 -4 4 13
16 21 21 21 13z m-31 -47 c-15 -9 -32 -2 -24 11 3 5 13 6 21 3 12 -4 13 -8 3
-14z m6 -98 c-2 -2 -11 3 -19 12 -8 8 -12 17 -9 21 3 3 12 -2 19 -12 7 -9 11
-19 9 -21z m476 -8 c-12 -20 -14 -14 -5 12 4 9 9 14 11 11 3 -2 0 -13 -6 -23z
m-491 -53 c0 -5 -2 -10 -4 -10 -3 0 -8 5 -11 10 -3 6 -1 10 4 10 6 0 11 -4 11
-10z m555 -49 c1 -10 -4 -18 -10 -18 -7 0 -10 10 -7 24 5 26 15 23 17 -6z
m1785 -63 c0 -6 -3 -8 -7 -5 -3 4 -11 2 -18 -3 -8 -7 -12 -6 -12 3 0 7 9 14
19 14 10 1 18 -3 18 -9z m-56 -13 c-4 -8 -9 -15 -14 -15 -4 0 -12 -10 -19 -22
-8 -15 -10 -16 -6 -4 3 10 0 26 -7 35 -10 13 -10 14 1 4 11 -9 17 -9 28 3 18
18 24 18 17 -1z m36 -21 c0 -8 -19 -13 -24 -6 -3 5 1 9 9 9 8 0 15 -2 15 -3z
m-2284 -73 c-4 -6 -13 -11 -19 -11 -8 0 -7 3 2 9 8 5 10 14 6 22 -6 11 -5 11
5 2 7 -6 9 -16 6 -22z m2154 14 c0 -2 -9 -3 -19 -2 -11 0 -18 5 -15 9 4 6 34
0 34 -7z m281 -28 c-10 -9 -11 -8 -5 6 3 10 9 15 12 12 3 -3 0 -11 -7 -18z
m-1798 -41 c3 -8 -1 -22 -9 -33 -14 -17 -15 -17 -5 3 7 15 7 24 -1 32 -8 8 -9
12 -1 12 6 0 13 -6 16 -14z m1417 10 c0 -2 -8 -10 -17 -17 -16 -13 -17 -12 -4
4 13 16 21 21 21 13z m20 -20 c0 -2 -7 -7 -16 -10 -8 -3 -12 -2 -9 4 6 10 25
14 25 6z m-2104 -53 c13 -20 13 -25 2 -16 -8 7 -17 11 -19 8 -3 -2 -5 5 -5 15
0 25 0 25 22 -7z m691 -32 c0 -11 -5 -18 -9 -15 -4 3 -5 11 -1 19 7 21 12 19
10 -4z m1707 1 c3 -5 -1 -9 -9 -9 -8 0 -15 4 -15 9 0 4 4 8 9 8 6 0 12 -4 15
-8z m-1653 -43 c6 -12 5 -20 -3 -25 -7 -4 -8 -3 -4 4 4 7 2 12 -3 12 -6 0 -10
6 -8 13 1 6 -3 11 -9 10 -6 -1 -11 5 -11 12 0 18 23 2 38 -26z m-756 -6 c-1
-10 2 -23 7 -30 6 -8 4 -11 -9 -9 -16 3 -19 11 -14 46 0 6 5 10 10 10 5 0 8
-8 6 -17z m1900 7 c3 -6 -1 -7 -9 -4 -18 7 -21 14 -7 14 6 0 13 -4 16 -10z
m-141 -36 c3 -8 2 -12 -4 -9 -6 3 -10 10 -10 16 0 14 7 11 14 -7z m-49 -24
c-3 -5 -12 -10 -18 -10 -7 0 -6 4 3 10 19 12 23 12 15 0z m-99 -19 c0 -13 -6
-17 -20 -13 -18 5 -18 6 -1 19 11 7 19 13 20 13 0 0 1 -8 1 -19z m-21 -30 c-3
-2 0 -10 6 -18 16 -18 4 -16 -15 3 -9 8 -16 11 -16 6 0 -6 -7 -13 -16 -16 -13
-5 -14 -4 -6 7 7 8 10 16 7 18 -2 3 7 5 20 5 13 0 22 -2 20 -5z m-1588 -26 c0
-8 -4 -12 -9 -9 -5 3 -6 10 -3 15 9 13 12 11 12 -6z m1563 -70 c0 -3 -5 -5
-11 -5 -5 0 -7 5 -4 10 3 6 2 10 -4 10 -5 0 -13 9 -16 20 -4 11 -11 18 -16 15
-10 -7 -13 8 -3 18 6 5 54 -56 54 -68z m30 48 c0 -3 -7 -3 -15 1 -24 9 -17
-10 8 -22 15 -7 17 -11 6 -11 -22 -1 -55 35 -37 41 14 5 38 -1 38 -9z m-790 2
c0 -7 -30 -13 -34 -7 -3 4 4 9 15 9 10 1 19 0 19 -2z m-790 -15 c9 -6 10 -10
3 -10 -6 0 -10 -9 -8 -20 2 -11 0 -18 -5 -15 -4 3 -7 13 -6 23 2 9 -2 20 -8
24 -6 5 -7 8 -1 8 6 0 17 -5 25 -10z m1430 -11 c0 -5 5 -7 12 -3 7 4 8 3 4 -4
-4 -6 -13 -9 -21 -5 -17 6 -20 23 -5 23 6 0 10 -5 10 -11z m820 7 c0 -3 -4 -8
-10 -11 -5 -3 -10 -1 -10 4 0 6 5 11 10 11 6 0 10 -2 10 -4z m-872 -41 c-3 -3
-9 2 -12 12 -6 14 -5 15 5 6 7 -7 10 -15 7 -18z m137 15 c3 -6 -1 -7 -9 -4
-18 7 -21 14 -7 14 6 0 13 -4 16 -10z m-162 -13 c3 -8 -1 -14 -9 -14 -15 0
-18 9 -7 20 9 9 10 9 16 -6z m237 8 c0 -2 -10 -9 -22 -15 -22 -11 -22 -10 -4
4 21 17 26 19 26 11z m-273 -19 c0 -8 -6 -12 -15 -9 -11 5 -11 7 0 14 7 5 13
9 14 9 0 0 1 -6 1 -14z m147 2 c-3 -4 -11 -5 -19 -1 -21 7 -19 12 4 10 11 0
18 -5 15 -9z m-1474 -18 c0 -5 -5 -10 -11 -10 -5 0 -7 5 -4 10 3 6 8 10 11 10
2 0 4 -4 4 -10z m850 -15 c14 -19 14 -19 -2 -6 -10 7 -18 18 -18 24 0 6 1 8 3
6 1 -2 9 -13 17 -24z m1410 21 c0 -2 -6 -9 -14 -15 -11 -9 -16 -9 -22 0 -4 8
-3 9 4 5 7 -4 12 -2 12 3 0 6 5 11 10 11 6 0 10 -2 10 -4z m-980 -47 c0 -5 -5
-9 -11 -9 -5 0 -7 5 -4 10 3 6 1 10 -4 10 -6 0 -11 5 -11 11 0 8 5 8 15 -1 8
-7 15 -16 15 -21z m-1245 1 c3 -5 1 -10 -4 -10 -6 0 -11 5 -11 10 0 6 2 10 4
10 3 0 8 -4 11 -10z m-39 -19 c-4 -5 -1 -11 6 -13 14 -5 2 -28 -15 -28 -8 0
-8 3 2 9 9 6 10 11 2 15 -10 7 -6 26 5 26 3 0 3 -4 0 -9z m2213 -20 c7 -5 9
-11 5 -14 -5 -3 -15 1 -22 9 -14 16 -5 18 17 5z m-29 -15 c0 -3 -4 -8 -10 -11
-5 -3 -10 -1 -10 4 0 6 5 11 10 11 6 0 10 -2 10 -4z m-1034 -123 c0 -11 5 -17
14 -15 12 3 13 1 2 -10 -11 -11 -14 -10 -22 2 -5 8 -10 12 -11 8 -2 -11 -6
-26 -9 -35 -1 -5 -2 -11 -1 -15 0 -5 -4 -8 -10 -8 -6 0 -9 6 -6 14 3 7 0 19
-6 26 -8 9 -9 11 -1 7 7 -4 17 0 24 8 7 8 9 15 4 15 -7 0 15 19 22 20 1 0 1
-8 0 -17z m977 -13 c-3 -11 -9 -20 -15 -20 -5 0 -4 9 2 20 6 11 12 20 14 20 2
0 2 -9 -1 -20z m-83 -110 c0 -5 -5 -10 -11 -10 -5 0 -7 5 -4 10 3 6 8 10 11
10 2 0 4 -4 4 -10z m-2075 -10 c-3 -5 -2 -10 4 -10 5 0 0 -11 -12 -24 -12 -14
-24 -23 -26 -20 -2 2 4 13 14 24 10 11 15 20 11 20 -4 0 -4 5 -1 10 3 6 8 10
11 10 3 0 2 -4 -1 -10z m15 -50 c0 -5 -2 -10 -4 -10 -3 0 -8 5 -11 10 -3 6 -1
10 4 10 6 0 11 -4 11 -10z m2048 -29 c1 -1 -5 -12 -13 -25 -11 -16 -23 -23
-37 -21 -24 5 -40 18 -18 15 36 -5 44 0 24 15 -18 15 -18 15 0 8 13 -4 17 -3
13 4 -6 9 6 11 31 4z m-133 -190 c3 -5 2 -12 -3 -15 -5 -3 -9 1 -9 9 0 17 3
19 12 6z m-1949 -56 c-1 -8 -7 -20 -13 -26 -13 -13 -13 7 0 29 11 16 16 15 13
-3z m-76 -95 c10 0 21 -4 24 -9 3 -4 -7 -6 -22 -3 -25 5 -26 4 -12 -14 11 -14
11 -16 0 -7 -7 7 -15 23 -16 35 -2 13 0 17 2 11 3 -7 14 -13 24 -13z m-46 -11
c-3 -5 -10 -7 -15 -3 -5 3 -7 10 -3 15 3 5 10 7 15 3 5 -3 7 -10 3 -15z m-24
-33 c0 -2 -7 -7 -16 -10 -8 -3 -12 -2 -9 4 6 10 25 14 25 6z m-310 -131 c-5
-7 -6 -16 -2 -21 4 -4 0 -3 -9 4 -9 6 -20 8 -25 4 -4 -4 -3 0 4 9 6 9 18 16
27 16 10 0 12 -4 5 -12z m40 -11 c0 -8 -19 -13 -24 -6 -3 5 1 9 9 9 8 0 15 -2
15 -3z m-167 -57 c4 3 7 1 7 -5 0 -7 -6 -12 -14 -12 -8 0 -16 -6 -19 -12 -2
-7 -4 -1 -3 14 1 18 5 23 12 17 6 -5 14 -6 17 -2z m-94 -64 c-6 -7 -15 -10
-20 -7 -13 8 -3 21 15 21 12 0 13 -4 5 -14z m-38 -36 c-10 -9 -11 -8 -5 6 3
10 9 15 12 12 3 -3 0 -11 -7 -18z m2562 -23 c1 -4 -6 -8 -15 -10 -21 -3 -22 2
-5 20 11 13 15 11 20 -10z m-2709 -66 c-3 -4 -11 -5 -19 -1 -21 7 -19 12 4 10
11 0 18 -5 15 -9z m-109 -36 c-3 -3 -11 0 -18 7 -9 10 -8 11 6 5 10 -3 15 -9
12 -12z m-55 -36 c0 -3 -4 -8 -10 -11 -5 -3 -10 -1 -10 4 0 6 5 11 10 11 6 0
10 -2 10 -4z m-84 -38 c10 -13 12 -17 4 -10 -16 14 -34 16 -25 3 3 -6 -3 -8
-15 -6 -11 2 -22 -1 -25 -6 -4 -5 -11 -6 -17 -3 -8 5 -9 1 -4 -12 4 -10 4 -15
0 -11 -4 4 -13 -1 -21 -11 -8 -9 -12 -11 -8 -4 4 7 1 21 -7 30 -11 15 -11 15
3 5 13 -11 18 -9 27 13 7 14 16 23 20 20 4 -2 14 -1 22 5 21 13 25 12 46 -13z
m3139 12 c3 -5 1 -10 -4 -10 -6 0 -11 5 -11 10 0 6 2 10 4 10 3 0 8 -4 11 -10z
m75 -3 c0 -2 -10 -12 -22 -23 l-23 -19 19 23 c18 21 26 27 26 19z m-53 -52 c0
-8 -4 -12 -9 -9 -5 3 -6 10 -3 15 9 13 12 11 12 -6z m57 -31 c3 -8 2 -12 -4
-9 -6 3 -10 10 -10 16 0 14 7 11 14 -7z m259 -122 c-16 -10 7 -29 34 -27 12 1
20 -2 17 -6 -2 -4 8 -17 22 -28 15 -12 22 -21 17 -21 -5 0 -19 9 -32 21 -19
18 -24 19 -38 7 -11 -8 -14 -9 -10 -1 5 7 -3 19 -18 29 -24 15 -24 17 -8 29
10 8 20 11 23 9 2 -3 -1 -8 -7 -12z m-3900 2 c-7 -3 -9 -13 -6 -22 4 -14 3
-14 -5 -2 -12 16 -7 30 11 29 9 0 9 -2 0 -5z m-48 -54 c-3 -5 -2 -10 4 -10 5
0 9 -9 8 -20 -1 -11 -5 -20 -10 -20 -5 0 -7 7 -4 15 4 8 2 17 -4 20 -9 6 -4
25 7 25 3 0 2 -4 -1 -10z m4109 -49 c9 -7 15 -21 15 -30 -1 -13 -2 -13 -6 2
-2 9 -9 15 -14 11 -5 -3 -8 0 -7 8 2 8 -7 13 -24 12 -15 0 -25 3 -22 8 7 11
39 5 58 -11z m74 -60 c-7 -2 -14 1 -16 7 -2 6 -11 8 -20 5 -14 -4 -14 -3 -3 5
10 7 20 6 33 -1 12 -8 14 -13 6 -16z m-3832 -28 c-2 -9 -10 -17 -19 -19 -22
-3 -22 5 1 22 22 17 21 17 18 -3z m-143 -6 c3 -8 -1 -14 -8 -14 -7 0 -11 6 -8
14 3 7 6 13 8 13 2 0 5 -6 8 -13z m267 8 c0 -7 -30 -13 -34 -7 -3 4 4 9 15 9
10 1 19 0 19 -2z m3775 -5 c-3 -5 -14 -10 -23 -9 -14 0 -13 2 3 9 27 11 27 11
20 0z m-3841 -15 c-4 -8 -8 -15 -10 -15 -2 0 -4 7 -4 15 0 8 4 15 10 15 5 0 7
-7 4 -15z m229 -10 c-3 -9 -8 -14 -10 -11 -3 3 -2 9 2 15 9 16 15 13 8 -4z
m153 -31 c1 -9 0 -13 -4 -10 -3 4 -7 14 -8 22 -1 9 0 13 4 10 3 -4 7 -14 8
-22z m3568 -25 c-3 -5 -11 -9 -17 -9 -9 0 -9 2 -1 8 9 5 8 11 -2 20 -8 7 -14
8 -14 2 0 -5 -7 -10 -15 -10 -8 0 -15 5 -15 11 0 5 4 8 9 4 5 -3 13 0 16 5 5
8 13 6 26 -6 10 -9 16 -21 13 -25z m-3324 27 c0 -2 -7 -7 -16 -10 -8 -3 -12
-2 -9 4 6 10 25 14 25 6z m25 -6 c-3 -5 -1 -10 6 -10 7 0 10 -3 6 -6 -9 -9
-28 6 -22 17 4 5 8 9 11 9 3 0 2 -4 -1 -10z m75 0 c0 -5 -5 -10 -11 -10 -5 0
-7 5 -4 10 3 6 8 10 11 10 2 0 4 -4 4 -10z m200 -42 c0 -9 4 -8 10 2 6 9 10
10 10 3 0 -16 -17 -26 -25 -13 -4 6 -11 7 -17 4 -7 -4 -8 -2 -4 4 10 16 26 15
26 0z m120 -3 c5 3 11 1 14 -4 4 -5 -2 -8 -11 -7 -9 2 -18 8 -19 15 -1 6 0 7
3 1 2 -5 9 -8 13 -5z m57 -2 c0 -8 -6 -9 -19 -2 -10 5 -18 11 -18 12 0 2 8 3
18 3 10 0 19 -6 19 -13z m2907 1 c4 -9 4 -19 1 -22 -3 -3 -5 1 -5 9 0 12 -2
11 -10 -1 -7 -12 -9 -10 -7 8 2 26 12 29 21 6z m169 -129 c-7 -21 -12 -19 -10
4 0 11 5 18 9 15 4 -3 5 -11 1 -19z m42 -26 c-10 -15 -25 -10 -19 6 4 8 10 12
15 9 5 -3 7 -10 4 -15z m-1415 -19 c0 -5 -5 -10 -11 -10 -5 0 -7 5 -4 10 3 6
8 10 11 10 2 0 4 -4 4 -10z m-187 -13 c3 -8 -5 -13 -24 -13 -16 -1 -29 2 -29
7 0 4 9 6 20 4 11 -2 20 0 20 6 0 13 7 11 13 -4z m1597 -11 c0 -2 -7 -7 -16
-10 -8 -3 -12 -2 -9 4 6 10 25 14 25 6z m-2920 -35 c3 -2 -3 -1 -12 2 -12 4
-18 1 -18 -8 0 -8 -4 -15 -8 -15 -5 0 -9 7 -9 15 0 8 4 15 9 15 5 0 6 6 2 13
-7 10 13 -1 36 -22z m1663 -1 c-3 -12 -8 -19 -11 -16 -5 6 5 36 12 36 2 0 2
-9 -1 -20z m-571 -5 c18 0 16 -14 -6 -34 -20 -18 -24 -20 -29 -7 -3 9 -1 18 5
22 7 4 8 3 4 -4 -8 -13 6 -17 17 -5 10 9 -14 34 -26 26 -6 -3 -7 -1 -3 6 4 6
13 8 19 4 7 -4 15 -8 19 -8z m629 -2 c13 -16 12 -17 -3 -4 -17 13 -22 21 -14
21 2 0 10 -8 17 -17z m156 -5 c-3 -8 -6 -5 -6 6 -1 11 2 17 5 13 3 -3 4 -12 1
-19z m-187 -8 c0 -5 -4 -10 -10 -10 -5 0 -10 5 -10 10 0 6 5 10 10 10 6 0 10
-4 10 -10z m237 -17 c-9 -8 -47 -11 -47 -4 0 5 11 9 25 9 14 0 24 -2 22 -5z
m118 -11 c-3 -3 -11 0 -18 7 -9 10 -8 11 6 5 10 -3 15 -9 12 -12z m-1018 -27
c0 -8 -4 -12 -9 -9 -5 3 -6 10 -3 15 9 13 12 11 12 -6z m1423 -10 c0 -8 -3
-16 -7 -18 -5 -3 -8 5 -8 18 0 13 3 21 8 18 4 -2 7 -10 7 -18z m413 12 c4 14
5 15 6 2 0 -9 -7 -23 -16 -30 -10 -7 -15 -10 -11 -5 4 5 3 18 -3 30 -9 20 -9
20 5 3 14 -18 14 -18 19 0z m-1806 -12 c0 -8 -4 -12 -9 -9 -4 3 -8 9 -8 15 0
5 4 9 8 9 5 0 9 -7 9 -15z m1491 -11 c0 -17 -3 -22 -8 -13 -5 6 -6 18 -3 26 8
19 11 16 11 -13z m-1538 2 c0 -3 -4 -8 -10 -11 -5 -3 -10 -1 -10 4 0 6 5 11
10 11 6 0 10 -2 10 -4z m-1023 -21 c0 -8 -4 -15 -9 -15 -10 0 -11 14 -1 23 9
10 10 9 10 -8z m2637 -6 c-3 -5 -10 -7 -15 -3 -5 3 -7 10 -3 15 3 5 10 7 15 3
5 -3 7 -10 3 -15z m113 -10 c2 -27 -14 -33 -26 -11 -11 21 -8 29 12 29 7 0 14
-8 14 -18z m-2733 -17 c2 -4 -4 -8 -14 -8 -10 0 -16 4 -14 8 3 4 9 8 14 8 5 0
11 -4 14 -8z m951 -110 c-3 -3 -15 -7 -26 -9 -16 -2 -18 -1 -7 11 7 7 19 11
26 9 7 -3 10 -8 7 -11z m-945 -62 c0 -5 -5 -10 -12 -10 -6 0 -3 -7 8 -15 10
-8 15 -15 10 -15 -5 0 -2 -7 5 -17 13 -15 12 -15 -8 -2 -13 8 -18 16 -12 20 7
4 5 9 -5 12 -9 4 -13 13 -10 22 7 17 24 21 24 5z m855 -52 c-3 -7 -18 -14 -33
-14 l-27 -1 30 13 c17 7 31 13 32 14 1 0 0 -6 -2 -12z m-860 -96 c-3 -3 -11 0
-18 7 -9 10 -8 11 6 5 10 -3 15 -9 12 -12z m5 -92 c0 -5 -5 -10 -11 -10 -5 0
-7 5 -4 10 3 6 8 10 11 10 2 0 4 -4 4 -10z m750 6 c0 -11 -19 -15 -25 -6 -3 5
1 10 9 10 9 0 16 -2 16 -4z m-720 -86 c0 -4 -7 -7 -15 -6 -23 3 -26 12 -5 13
11 1 20 -2 20 -7z m-15 -60 c-3 -5 -1 -10 6 -10 7 0 10 -3 6 -6 -9 -9 -28 6
-22 17 4 5 8 9 11 9 3 0 2 -4 -1 -10z m456 -233 c-10 -9 -11 -8 -5 6 3 10 9
15 12 12 3 -3 0 -11 -7 -18z m26 -11 c-10 -8 -18 -17 -18 -20 2 -18 0 -23 -14
-23 -8 0 -15 4 -15 9 0 4 8 8 17 8 9 0 13 3 10 7 -9 8 12 33 27 33 6 0 3 -7
-7 -14z m-466 -69 c-10 -9 -11 -8 -5 6 3 10 9 15 12 12 3 -3 0 -11 -7 -18z
m12 -68 c7 -25 3 -24 -17 6 -13 19 -13 23 -2 19 8 -3 16 -14 19 -25z m17 -55
c0 -8 -19 -13 -24 -6 -3 5 1 9 9 9 8 0 15 -2 15 -3z m175 -52 c-3 -3 -11 0
-18 7 -9 10 -8 11 6 5 10 -3 15 -9 12 -12z m30 -11 c3 -5 2 -12 -3 -15 -5 -3
-9 1 -9 9 0 17 3 19 12 6z m-205 -21 c0 -5 -2 -10 -4 -10 -3 0 -8 5 -11 10 -3
6 -1 10 4 10 6 0 11 -4 11 -10z m160 0 c0 -5 -2 -10 -4 -10 -3 0 -8 5 -11 10
-3 6 -1 10 4 10 6 0 11 -4 11 -10z m-169 -27 c13 -16 12 -17 -3 -4 -17 13 -22
21 -14 21 2 0 10 -8 17 -17z m29 -29 c0 -8 -19 -13 -24 -6 -3 5 1 9 9 9 8 0
15 -2 15 -3z m55 -124 c-3 -5 -2 -10 3 -10 5 0 9 -7 9 -16 0 -14 -2 -14 -14 2
-16 22 -17 34 -2 34 5 0 7 -4 4 -10z"/>
<path d="M2070 4866 c0 -2 7 -7 16 -10 8 -3 12 -2 9 4 -6 10 -25 14 -25 6z"/>
<path d="M2150 4661 c0 -6 4 -12 9 -16 6 -3 8 -15 6 -28 -4 -21 -4 -21 10 -2
13 17 13 20 0 28 -9 4 -13 12 -10 18 4 5 1 9 -4 9 -6 0 -11 -4 -11 -9z"/>
<path d="M2180 4660 c0 -6 7 -10 15 -10 8 0 15 2 15 4 0 2 -7 6 -15 10 -8 3
-15 1 -15 -4z"/>
<path d="M1827 4627 c-3 -8 1 -14 8 -14 7 0 11 6 8 14 -3 7 -6 13 -8 13 -2 0
-5 -6 -8 -13z"/>
<path d="M1816 4583 c-6 -14 -5 -15 5 -6 7 7 10 15 7 18 -3 3 -9 -2 -12 -12z"/>
<path d="M1825 4530 c-8 -13 15 -24 27 -12 6 6 4 11 -6 15 -8 3 -18 2 -21 -3z"/>
<path d="M1806 4418 c3 -5 10 -6 15 -3 13 9 11 12 -6 12 -8 0 -12 -4 -9 -9z"/>
<path d="M2273 4416 c3 -7 1 -18 -5 -24 -8 -8 -7 -13 5 -18 9 -3 15 -9 12 -14
-2 -4 1 -15 8 -24 12 -17 14 -17 28 1 13 17 13 17 -5 3 -18 -14 -19 -13 -13 4
5 12 3 22 -5 27 -15 10 -17 41 -3 51 6 4 2 8 -9 8 -11 0 -16 -5 -13 -14z"/>
<path d="M1796 4382 c-3 -5 1 -9 9 -9 8 0 12 4 9 9 -3 4 -7 8 -9 8 -2 0 -6 -4
-9 -8z"/>
<path d="M2325 4320 c-3 -5 -1 -10 4 -10 6 0 11 5 11 10 0 6 -2 10 -4 10 -3 0
-8 -4 -11 -10z"/>
<path d="M2375 4259 c-4 -6 -5 -12 -2 -15 2 -3 7 2 10 11 7 17 1 20 -8 4z"/>
<path d="M4330 4180 c0 -5 5 -10 11 -10 5 0 7 5 4 10 -3 6 -8 10 -11 10 -2 0
-4 -4 -4 -10z"/>
<path d="M4385 4140 c-3 -6 1 -7 9 -4 18 7 21 14 7 14 -6 0 -13 -4 -16 -10z"/>
<path d="M2426 4093 c-6 -14 -5 -15 5 -6 7 7 10 15 7 18 -3 3 -9 -2 -12 -12z"/>
<path d="M4431 4094 c0 -11 3 -14 6 -6 3 7 2 16 -1 19 -3 4 -6 -2 -5 -13z"/>
<path d="M4020 4040 c-9 -6 -10 -10 -3 -10 6 0 15 5 18 10 8 12 4 12 -15 0z"/>
<path d="M4050 4039 c0 -5 5 -7 10 -4 6 3 10 8 10 11 0 2 -4 4 -10 4 -5 0 -10
-5 -10 -11z"/>
<path d="M2456 4012 c-2 -4 4 -8 14 -8 10 0 16 4 14 8 -3 4 -9 8 -14 8 -5 0
-11 -4 -14 -8z"/>
<path d="M3965 4000 c-3 -6 1 -7 9 -4 18 7 21 14 7 14 -6 0 -13 -4 -16 -10z"/>
<path d="M4370 3981 c0 -6 4 -13 10 -16 6 -3 7 1 4 9 -7 18 -14 21 -14 7z"/>
<path d="M1810 3960 c0 -5 5 -10 11 -10 5 0 7 5 4 10 -3 6 -8 10 -11 10 -2 0
-4 -4 -4 -10z"/>
<path d="M2515 3960 c3 -5 8 -10 11 -10 2 0 4 5 4 10 0 6 -5 10 -11 10 -5 0
-7 -4 -4 -10z"/>
<path d="M3836 3962 c-3 -5 1 -9 9 -9 8 0 12 4 9 9 -3 4 -7 8 -9 8 -2 0 -6 -4
-9 -8z"/>
<path d="M1831 3937 c-6 -8 -8 -17 -4 -20 12 -13 22 -7 20 13 -2 24 -1 24 -16
7z"/>
<path d="M4323 3893 c9 -2 14 -9 11 -15 -4 -7 -2 -8 5 -4 15 10 4 26 -17 25
-15 -1 -15 -2 1 -6z"/>
<path d="M2566 3857 c3 -10 9 -15 12 -12 3 3 0 11 -7 18 -10 9 -11 8 -5 -6z"/>
<path d="M3680 3833 c6 -14 7 -23 1 -23 -5 0 -12 6 -14 13 -4 9 -6 9 -6 0 -1
-16 19 -27 30 -16 5 5 3 17 -7 29 -15 18 -15 18 -4 -3z"/>
<path d="M4271 3784 c0 -11 3 -14 6 -6 3 7 2 16 -1 19 -3 4 -6 -2 -5 -13z"/>
<path d="M3337 3679 c7 -7 15 -10 18 -7 3 3 -2 9 -12 12 -14 6 -15 5 -6 -5z"/>
<path d="M3294 3638 c-4 -6 -3 -8 4 -4 5 3 12 1 14 -6 3 -8 6 -9 11 -1 4 6 0
13 -8 17 -8 3 -17 0 -21 -6z"/>
<path d="M3175 3600 c-3 -5 -1 -10 4 -10 6 0 11 5 11 10 0 6 -2 10 -4 10 -3 0
-8 -4 -11 -10z"/>
<path d="M4116 3572 c-3 -5 1 -9 9 -9 8 0 12 4 9 9 -3 4 -7 8 -9 8 -2 0 -6 -4
-9 -8z"/>
<path d="M4135 3520 c3 -5 8 -10 11 -10 2 0 4 5 4 10 0 6 -5 10 -11 10 -5 0
-7 -4 -4 -10z"/>
<path d="M4109 3463 c-13 -16 -12 -17 4 -4 16 13 21 21 13 21 -2 0 -10 -8 -17
-17z"/>
<path d="M2919 3435 c-1 -3 -2 -11 -3 -17 -1 -7 -8 -12 -15 -10 -7 1 -9 -2 -6
-9 9 -13 28 3 31 26 2 13 -4 22 -7 10z"/>
<path d="M1810 3420 c0 -5 5 -10 11 -10 5 0 7 5 4 10 -3 6 -8 10 -11 10 -2 0
-4 -4 -4 -10z"/>
<path d="M4070 3420 c0 -5 5 -10 11 -10 5 0 7 5 4 10 -3 6 -8 10 -11 10 -2 0
-4 -4 -4 -10z"/>
<path d="M2855 3360 c3 -5 8 -10 11 -10 2 0 4 5 4 10 0 6 -5 10 -11 10 -5 0
-7 -4 -4 -10z"/>
<path d="M4010 3319 c0 -5 5 -7 10 -4 6 3 10 8 10 11 0 2 -4 4 -10 4 -5 0 -10
-5 -10 -11z"/>
<path d="M2901 3308 c-1 -12 -7 -16 -18 -12 -15 5 -16 4 -3 -5 17 -12 35 1 27
21 -4 9 -6 8 -6 -4z"/>
<path d="M1788 3261 c15 -13 18 -21 10 -24 -9 -4 -10 -6 -1 -6 24 -2 22 17 -5
33 l-27 17 23 -20z"/>
<path d="M3955 3209 c-4 -6 -5 -12 -2 -15 2 -3 7 2 10 11 7 17 1 20 -8 4z"/>
<path d="M3906 3181 c-3 -5 1 -11 9 -14 9 -4 12 -1 8 9 -6 16 -10 17 -17 5z"/>
<path d="M3815 3000 c3 -5 8 -10 11 -10 2 0 4 5 4 10 0 6 -5 10 -11 10 -5 0
-7 -4 -4 -10z"/>
<path d="M1735 2840 c-3 -5 -1 -10 4 -10 6 0 11 5 11 10 0 6 -2 10 -4 10 -3 0
-8 -4 -11 -10z"/>
<path d="M1750 2809 c0 -5 5 -7 10 -4 6 3 10 8 10 11 0 2 -4 4 -10 4 -5 0 -10
-5 -10 -11z"/>
<path d="M1630 2799 c0 -5 5 -7 10 -4 6 3 10 8 10 11 0 2 -4 4 -10 4 -5 0 -10
-5 -10 -11z"/>
<path d="M3690 2800 c0 -5 5 -10 11 -10 5 0 7 5 4 10 -3 6 -8 10 -11 10 -2 0
-4 -4 -4 -10z"/>
<path d="M3670 2780 c0 -5 5 -10 11 -10 5 0 7 5 4 10 -3 6 -8 10 -11 10 -2 0
-4 -4 -4 -10z"/>
<path d="M1554 2748 l-19 -23 25 20 c14 11 27 21 29 22 2 2 0 3 -6 3 -5 0 -18
-10 -29 -22z"/>
<path d="M3636 2693 c-4 -9 -3 -20 1 -24 4 -4 9 3 9 17 2 28 -1 31 -10 7z"/>
<path d="M1381 2654 c0 -11 3 -14 6 -6 3 7 2 16 -1 19 -3 4 -6 -2 -5 -13z"/>
<path d="M1424 2654 c-18 -14 -18 -15 4 -4 12 6 22 13 22 15 0 8 -5 6 -26 -11z"/>
<path d="M1434 2636 c-17 -13 -17 -14 -1 -12 19 2 47 26 31 26 -6 0 -19 -6
-30 -14z"/>
<path d="M1365 2620 c3 -5 8 -10 11 -10 2 0 4 5 4 10 0 6 -5 10 -11 10 -5 0
-7 -4 -4 -10z"/>
<path d="M3548 2573 c7 -3 16 -2 19 1 4 3 -2 6 -13 5 -11 0 -14 -3 -6 -6z"/>
<path d="M1124 2518 c-3 -5 -11 -5 -17 -2 -7 4 -8 3 -4 -1 12 -14 35 -14 46
-1 8 9 6 13 -5 13 -8 0 -17 -4 -20 -9z"/>
<path d="M3520 2466 c0 -2 7 -6 15 -10 8 -3 15 -1 15 4 0 6 -7 10 -15 10 -8 0
-15 -2 -15 -4z"/>
<path d="M1030 2440 c0 -5 -3 -9 -7 -9 -18 3 -33 -2 -33 -10 0 -13 23 -8 51
11 20 14 21 17 7 17 -10 1 -18 -3 -18 -9z"/>
<path d="M3596 2433 c-6 -14 -5 -15 5 -6 7 7 10 15 7 18 -3 3 -9 -2 -12 -12z"/>
<path d="M828 2353 c7 -3 16 -2 19 1 4 3 -2 6 -13 5 -11 0 -14 -3 -6 -6z"/>
<path d="M736 2298 c3 -5 10 -6 15 -3 13 9 11 12 -6 12 -8 0 -12 -4 -9 -9z"/>
<path d="M3911 2211 c-8 -14 -6 -23 9 -36 11 -10 20 -14 20 -10 0 4 8 1 18 -8
10 -10 22 -14 25 -10 4 3 7 1 7 -4 0 -13 25 -11 37 2 5 4 2 5 -6 0 -11 -6 -13
-4 -7 10 5 15 4 16 -9 5 -12 -10 -15 -10 -15 1 0 11 -2 11 -10 -1 -8 -12 -10
-10 -10 10 0 20 -2 22 -10 10 -9 -13 -10 -13 -10 1 0 8 6 21 13 29 10 12 9 12
-5 1 -18 -13 -42 -6 -33 10 4 5 4 9 1 9 -3 0 -10 -8 -15 -19z m24 -22 c11 -16
1 -19 -13 -3 -7 8 -8 14 -3 14 5 0 13 -5 16 -11z"/>
<path d="M410 2139 c0 -5 -4 -8 -8 -5 -5 3 -9 -1 -9 -9 0 -11 4 -12 13 -4 6 5
17 8 24 7 7 -2 15 4 17 12 4 13 3 13 -6 0 -7 -10 -11 -11 -11 -2 0 6 -4 12
-10 12 -5 0 -10 -5 -10 -11z"/>
<path d="M340 2126 c0 -9 30 -14 35 -6 4 6 -3 10 -14 10 -12 0 -21 -2 -21 -4z"/>
<path d="M4084 2104 c-18 -14 -18 -15 4 -4 12 6 22 13 22 15 0 8 -5 6 -26 -11z"/>
<path d="M4127 2099 c7 -7 15 -10 18 -7 3 3 -2 9 -12 12 -14 6 -15 5 -6 -5z"/>
<path d="M196 2042 c-3 -5 1 -9 9 -9 8 0 12 4 9 9 -3 4 -7 8 -9 8 -2 0 -6 -4
-9 -8z"/>
<path d="M4250 2001 c0 -6 4 -13 10 -16 6 -3 7 1 4 9 -7 18 -14 21 -14 7z"/>
<path d="M176 1957 c3 -10 9 -15 12 -12 3 3 0 11 -7 18 -10 9 -11 8 -5 -6z"/>
<path d="M219 1892 c9 -7 10 -11 2 -15 -7 -4 -8 -5 -1 -3 16 2 14 20 -2 24
-10 3 -10 2 1 -6z"/>
<path d="M239 1863 c-12 -16 -12 -17 2 -6 9 7 20 9 24 5 5 -4 5 -1 1 6 -9 16
-11 15 -27 -5z"/>
<path d="M365 1820 c-3 -5 -1 -10 4 -10 6 0 11 5 11 10 0 6 -2 10 -4 10 -3 0
-8 -4 -11 -10z"/>
<path d="M483 1823 c-17 -6 -16 -20 1 -26 11 -4 13 -1 9 10 -4 11 -2 14 5 9 7
-4 12 -2 12 3 0 12 -7 13 -27 4z"/>
<path d="M4480 1819 c0 -5 5 -7 10 -4 6 3 10 8 10 11 0 2 -4 4 -10 4 -5 0 -10
-5 -10 -11z"/>
<path d="M715 1800 c-4 -6 -11 -7 -17 -4 -7 4 -8 2 -4 -5 6 -9 11 -9 22 0 14
11 18 19 10 19 -3 0 -8 -5 -11 -10z"/>
<path d="M4576 1798 c3 -5 10 -6 15 -3 13 9 11 12 -6 12 -8 0 -12 -4 -9 -9z"/>
<path d="M670 1785 c0 -8 4 -15 10 -15 5 0 7 7 4 15 -4 8 -8 15 -10 15 -2 0
-4 -7 -4 -15z"/>
<path d="M735 1790 c-4 -6 -4 -14 -1 -17 3 -4 6 0 6 8 0 12 2 12 10 -1 5 -8
12 -12 15 -9 3 4 -1 12 -9 18 -10 9 -16 9 -21 1z"/>
<path d="M446 1778 c3 -5 10 -6 15 -3 13 9 11 12 -6 12 -8 0 -12 -4 -9 -9z"/>
<path d="M1196 1747 c3 -10 9 -15 12 -12 3 3 0 11 -7 18 -10 9 -11 8 -5 -6z"/>
<path d="M1010 1746 c0 -2 7 -7 16 -10 8 -3 12 -2 9 4 -6 10 -25 14 -25 6z"/>
<path d="M1090 1739 c0 -5 5 -7 10 -4 6 3 10 8 10 11 0 2 -4 4 -10 4 -5 0 -10
-5 -10 -11z"/>
<path d="M1333 1735 c0 -8 4 -12 9 -9 4 3 8 9 8 15 0 5 -4 9 -8 9 -5 0 -9 -7
-9 -15z"/>
<path d="M1370 1740 c-12 -7 -11 -9 5 -9 11 0 43 -2 71 -4 41 -2 51 0 47 11
-5 11 -7 11 -14 0 -6 -9 -9 -9 -9 -1 0 11 -36 10 -48 -1 -2 -3 -12 -1 -21 4
-10 5 -23 5 -31 0z"/>
<path d="M4696 1693 c-6 -14 -5 -15 5 -6 7 7 10 15 7 18 -3 3 -9 -2 -12 -12z"/>
<path d="M1845 1630 c-17 -7 -17 -9 -3 -9 12 -1 15 -6 11 -18 -3 -10 -3 -15 1
-12 6 6 18 50 13 48 -1 0 -11 -4 -22 -9z"/>
<path d="M1796 1618 c3 -5 10 -6 15 -3 13 9 11 12 -6 12 -8 0 -12 -4 -9 -9z"/>
<path d="M5070 1605 c6 -27 -1 -36 -22 -30 -23 7 -23 7 -3 -8 11 -9 22 -11 23
-6 2 5 7 7 11 5 10 -6 7 31 -3 41 -4 5 -7 4 -6 -2z"/>
<path d="M1870 1581 c0 -5 7 -11 14 -14 10 -4 13 -1 9 9 -6 15 -23 19 -23 5z"/>
<path d="M4873 1575 c0 -8 4 -12 9 -9 5 3 6 10 3 15 -9 13 -12 11 -12 -6z"/>
<path d="M5036 1547 c3 -10 9 -15 12 -12 3 3 0 11 -7 18 -10 9 -11 8 -5 -6z"/>
<path d="M3104 1528 c-4 -6 -3 -8 4 -4 5 3 13 0 15 -6 3 -8 6 -6 6 5 1 19 -14
23 -25 5z"/>
<path d="M3435 1480 c3 -5 8 -10 11 -10 2 0 4 5 4 10 0 6 -5 10 -11 10 -5 0
-7 -4 -4 -10z"/>
<path d="M1843 1459 c9 -6 15 -14 12 -20 -4 -5 -2 -9 4 -9 5 0 12 6 15 13 3 6
3 2 0 -10 -3 -13 -1 -23 4 -23 5 0 9 10 8 23 0 12 -6 22 -13 22 -6 0 -15 3
-19 8 -4 4 -12 7 -18 7 -6 0 -3 -5 7 -11z"/>
<path d="M4851 1427 c-13 -21 -12 -21 5 -5 10 10 16 20 13 22 -3 3 -11 -5 -18
-17z"/>
<path d="M3925 1429 c-10 -15 3 -25 16 -12 7 7 7 13 1 17 -6 3 -14 1 -17 -5z"/>
<path d="M4015 1429 c-10 -15 3 -25 16 -12 7 7 7 13 1 17 -6 3 -14 1 -17 -5z"/>
<path d="M1857 1385 c-4 -8 -3 -16 1 -19 4 -3 9 4 9 15 2 23 -3 25 -10 4z"/>
<path d="M2950 1380 c0 -5 0 -13 1 -16 0 -4 -5 -10 -12 -15 -8 -4 -10 -11 -5
-16 4 -4 12 0 17 10 6 9 15 15 21 11 6 -4 6 2 -1 15 -13 23 -21 27 -21 11z"/>
<path d="M4490 1360 c0 -5 5 -10 11 -10 5 0 7 5 4 10 -3 6 -8 10 -11 10 -2 0
-4 -4 -4 -10z"/>
<path d="M4556 1338 c3 -5 10 -6 15 -3 13 9 11 12 -6 12 -8 0 -12 -4 -9 -9z"/>
<path d="M2894 1309 c-8 -14 14 -19 25 -6 8 10 7 14 -5 14 -8 0 -17 -4 -20 -8z"/>
<path d="M2805 1180 c-3 -5 1 -10 10 -10 9 0 13 5 10 10 -3 6 -8 10 -10 10 -2
0 -7 -4 -10 -10z"/>
<path d="M2836 1147 c3 -10 9 -15 12 -12 3 3 0 11 -7 18 -10 9 -11 8 -5 -6z"/>
<path d="M2637 905 c-4 -8 -3 -16 1 -19 4 -3 9 4 9 15 2 23 -3 25 -10 4z"/>
<path d="M1901 814 c0 -11 3 -14 6 -6 3 7 2 16 -1 19 -3 4 -6 -2 -5 -13z"/>
<path d="M2585 820 c-3 -5 1 -10 10 -10 9 0 13 5 10 10 -3 6 -8 10 -10 10 -2
0 -7 -4 -10 -10z"/>
<path d="M1909 758 c-1 -7 -1 -16 0 -20 0 -5 -3 -8 -9 -8 -5 0 -10 -5 -10 -10
0 -6 8 -5 19 2 11 6 19 20 18 30 -1 20 -16 25 -18 6z"/>
<path d="M2526 685 c4 -8 11 -15 16 -15 6 0 5 6 -2 15 -7 8 -14 15 -16 15 -2
0 -1 -7 2 -15z"/>
<path d="M1900 675 c8 -11 15 -21 16 -23 1 -2 5 5 8 15 4 9 4 14 0 10 -4 -4
-14 -1 -23 6 -14 11 -15 10 -1 -8z"/>
<path d="M1897 629 c4 -13 8 -18 11 -10 2 7 -1 18 -6 23 -8 8 -9 4 -5 -13z"/>
<path d="M1910 489 c0 -5 5 -7 10 -4 6 3 10 8 10 11 0 2 -4 4 -10 4 -5 0 -10
-5 -10 -11z"/>
<path d="M2362 470 c-27 -25 -27 -26 -3 -26 11 0 17 4 14 9 -3 5 1 13 8 18 7
4 11 10 8 13 -3 3 -15 -3 -27 -14z"/>
<path d="M2370 421 c0 -6 4 -13 10 -16 6 -3 7 1 4 9 -7 18 -14 21 -14 7z"/>
<path d="M2296 385 c-21 -22 -21 -31 1 -14 15 12 16 12 9 -6 -7 -19 -6 -19 11
-3 12 13 14 21 6 29 -7 7 -15 6 -27 -6z"/>
<path d="M1917 299 c7 -7 15 -10 18 -7 3 3 -2 9 -12 12 -14 6 -15 5 -6 -5z"/>
<path d="M2225 300 c-3 -5 -2 -10 4 -10 5 0 13 5 16 10 3 6 2 10 -4 10 -5 0
-13 -4 -16 -10z"/>
<path d="M2250 279 c0 -5 5 -7 10 -4 6 3 10 8 10 11 0 2 -4 4 -10 4 -5 0 -10
-5 -10 -11z"/>
<path d="M1950 221 c0 -6 4 -13 10 -16 6 -3 7 1 4 9 -7 18 -14 21 -14 7z"/>
<path d="M2176 202 c-3 -5 1 -9 9 -9 8 0 12 4 9 9 -3 4 -7 8 -9 8 -2 0 -6 -4
-9 -8z"/>
<path d="M1998 88 c8 -10 9 -19 3 -22 -5 -3 -12 -1 -14 4 -3 6 -4 5 -3 -1 1
-7 10 -13 19 -15 9 -1 15 2 11 7 -3 5 -1 9 5 9 5 0 12 -6 14 -12 4 -8 6 -9 6
-2 1 7 -11 20 -26 30 -22 14 -25 14 -15 2z"/>
</g>
</svg>
