<svg version="1.1" xmlns="http://www.w3.org/2000/svg" x="0" y="0" width="56.693" height="68.031" viewBox="0 0 56.693 68.031" xml:space="preserve"><g fill="#FFF"><path d="M46.029 32.209a31.51 31.51 0 0 0-.366-.688l-5.486-9.639-6.59-11.465c-.684.378-1.411.795-2.11 1.172-.174.089-.349.189-.523.253l-.264.108c-.047.018-.083.036-.143.055l-.1.035a6.534 6.534 0 0 1-2.053.338 6.546 6.546 0 0 1-1.656-.213 5.63 5.63 0 0 1-.4-.122l-.096-.032a1.813 1.813 0 0 1-.142-.057l-.265-.108c-.176-.062-.35-.162-.524-.251-.7-.376-1.429-.796-2.111-1.174-4.176 7.287-8.359 14.594-12.541 21.894-.47.817-.938 1.637-1.405 2.452.655.396 1.364.812 2.022 1.221.16.105.331.203.472.322l.218.17a5.125 5.125 0 0 1 .499.449 6.675 6.675 0 0 1 1.825 3.336l.083.506.046.559.052 2.323c9.232-.056 18.441-.108 27.597-.162l.036-2.061c0-.175.022-.336.032-.5l.022-.247.034-.215.034-.215c.007-.045.012-.061.016-.074l.01-.052c.015-.065.026-.131.045-.197.124-.522.319-1.03.565-1.509a6.969 6.969 0 0 1 2.102-2.441c.28-.227.464-.357.564-.455.134-.111.166-.169.146-.203-.037-.066-.278-.027-.32-.104a7.411 7.411 0 0 0-2.799 2.853 7.881 7.881 0 0 0-.7 1.745c-.041.164-.066.236-.121.555a3.328 3.328 0 0 0-.059.422c-.017.146-.034.29-.038.439l-.082 1.714c-.05.009-.086.03-.145.03l-.181-.006a10.176 10.176 0 0 1-.355-.012l-.687-.023c-.735 0-.393-.086-.108-.193.293-.109.496-.24-.181-.327h-4.082c-.908-.261.909-.521 0-.778-.035-.011-.083-.02-.125-.029h4.515a8.756 8.756 0 0 1 4.449-7.617l-.507-.879-2.583-4.473c.008-.005.019-.009.023-.014.075-.045.529.743.984 1.532.15-.086.755.613.375-.218-.455-.787-.91-1.574-1.362-2.361 1.893 3.106 3.177 4.465 3.401 4.334-.529-.745-.304-.875-.834-1.619a61.028 61.028 0 0 0 1.538 2.088c.696.884 1.021 1.153.339-.172zm-17.637-.253h-4.811l2.404-4.166 2.406-4.167 2.406 4.167 2.405 4.166h-4.81zM15.723 51.949c-.263.19-.394.387-.394.591 0 .104.039.197.118.275a.37.37 0 0 0 .275.117.368.368 0 0 0 .276-.117.379.379 0 0 0 .117-.275c.001-.235-.13-.433-.392-.591zM22.621 59.968c-.263.189-.394.387-.394.59 0 .104.039.195.118.275a.381.381 0 0 0 .553 0 .387.387 0 0 0 .116-.275c.002-.236-.129-.433-.393-.59zM19.634 8.21c.551 0 1.001-.438 1.001-.971 0-.535-.45-.971-1.001-.971h-2.97c-.551 0-.999.436-.999.971 0 .533.448.971.999.971h2.97zM40.027 8.21c.55 0 .999-.438.999-.971 0-.535-.449-.971-.999-.971h-2.97c-.55 0-1 .436-1 .971 0 .533.45.971 1 .971h2.97zM49.933 28.663c0-.596-.436-1.081-.971-1.081-.533 0-.97.485-.97 1.081v3.663c0 .597.437 1.082.97 1.082.535 0 .971-.485.971-1.082v-3.663zM49.933 17.009c0-.594-.436-1.08-.971-1.08-.533 0-.97.486-.97 1.08v3.664c0 .594.437 1.08.97 1.08.535 0 .971-.486.971-1.08v-3.664zM8.7 28.663c0-.596-.437-1.081-.97-1.081-.535 0-.972.485-.972 1.081v3.663c0 .597.437 1.082.972 1.082.533 0 .97-.485.97-1.082v-3.663zM6.759 20.673c0 .594.437 1.08.972 1.08.533 0 .97-.486.97-1.08v-3.664c0-.594-.437-1.08-.97-1.08-.535 0-.972.486-.972 1.08v3.664zM8.579 8.628a.562.562 0 0 1 .416-.414h.853c.179 0 .361.008.542-.004.126-.007.249-.027.37-.063.395-.119.712-.482.712-.904 0-.418-.314-.789-.707-.907-.311-.093-.642-.063-.961-.063-.529-.004-1.059 0-1.588 0-.87 0-1.578.707-1.578 1.576V8.8c-.001.321.003.644 0 .965-.003.27.002.555.132.795.103.192.269.373.471.463.11.048.248.079.368.079.398 0 .755-.29.895-.656.113-.3.076-.64.076-.954v-.864zM47.866 9.479c0 .179-.008.362.003.542.008.125.026.25.061.371.12.395.484.711.906.711.417 0 .788-.316.906-.705.095-.311.063-.644.065-.964.003-.528 0-1.058 0-1.587a1.58 1.58 0 0 0-1.579-1.578h-.949c-.322-.002-.645.004-.966 0-.27-.002-.553.002-.794.131-.193.104-.374.27-.464.472a.996.996 0 0 0-.079.368c0 .4.29.756.657.895.299.113.641.076.954.076h.862a.555.555 0 0 1 .416.416v.753l.001.099z"/><path d="M54.085 41.606a5.049 5.049 0 0 0-1.731-3.797l.014.006a5.404 5.404 0 0 0-.393-.314l-.002-.002a5.06 5.06 0 0 0-.394-.252c-.011-.006-.021-.014-.031-.021a4.85 4.85 0 0 0-.275-.148l-.034-.017a4.818 4.818 0 0 0-.472-.202l-.137-.051a4.962 4.962 0 0 0-.217-.065 3.842 3.842 0 0 0-.266-.07c-.058-.013-.114-.026-.172-.036a5.802 5.802 0 0 0-.505-.073c-.149-.012-.3-.023-.453-.023s-.306.012-.456.023l-.113.012a4.863 4.863 0 0 0-.424.066c-.034.006-.069.016-.104.024a4.22 4.22 0 0 0-.313.08c-.051.015-.103.029-.153.046-.117.039-.231.08-.344.125-.062.025-.121.056-.183.082-.063.029-.127.06-.188.091a3.99 3.99 0 0 0-.184.095l-.094.058a3.609 3.609 0 0 0-.206.123c-.061.04-.12.084-.179.126a5.266 5.266 0 0 0-.326.251 4.847 4.847 0 0 0-.271.246c-.042.042-.082.085-.122.128-.06.063-.117.125-.173.191a4.92 4.92 0 0 0-.341.438c-.026.037-.049.076-.073.113a5.798 5.798 0 0 0-.229.387 5.315 5.315 0 0 0-.18.372c-.011.028-.021.056-.033.082a5.233 5.233 0 0 0-.123.337l-.037.12c-.042.138-.08.278-.109.422l-.008.047a5.445 5.445 0 0 0-.063.403l-.012.119a5.002 5.002 0 0 0 .01 1.014l.009.063c.019.145.043.285.073.426l.009.059c1.28.596 2.829.656 3.509.215 0 .332-1.182 1.557-2.592 1.354a4.902 4.902 0 0 1-.35-.107c.074.158.153.298.236.432a3.999 3.999 0 0 0 1.962 1.685c-1.11.008-1.269.044-2.655.044-1.561 0-1.561-.188-3.123-.188-1.562 0-1.562.232-3.123.232s-1.562-.482-3.124-.482c-1.561 0-1.561.537-3.122.537s-1.561.089-3.123.089c-1.56 0-1.56-.535-3.12-.535-1.562 0-1.562-.181-3.125-.181-1.561 0-1.561.598-3.121.598-1.562 0-1.562.124-3.123.124-1.561 0-1.561-.489-3.122-.489-1.354 0-1.535-.008-2.579-.01.695-.404 1.255-1.004 1.648-1.818-1.55.471-2.923-.924-2.923-1.283.68.441 2.228.381 3.506-.214l.011-.052c-.002.017-.004.035-.008.051.079-.355.124-.723.124-1.102a5.067 5.067 0 0 0-2.603-4.422 5.085 5.085 0 0 0-1.442-.539l-.014-.002c-.097-.021-.195-.035-.292-.05a.45.45 0 0 1-.039-.007c-.097-.014-.193-.021-.29-.029-.017-.002-.029-.004-.047-.004a3.199 3.199 0 0 0-.34-.017 5.08 5.08 0 0 0-4.837 3.563 4.869 4.869 0 0 0-.202.987 5.218 5.218 0 0 0-.004.98c.004.045.011.086.016.131.014.117.032.232.052.346.009.039.015.076.022.115a4.448 4.448 0 0 0 .151.549c.032.094.064.184.101.275l.07.167c.036.083.076.161.116.241a6.82 6.82 0 0 0 .264.46c.046.071.094.141.144.208.027.039.056.076.085.115.193.25.406.482.643.693.008.01.016.015.024.021a5.014 5.014 0 0 0 2.429 1.191c-.804.838-.449 1.117-.449 2.48 0 1.469.772 1.469.772 2.938 0 1.468-.566 1.468-.566 2.936 0 1.469.513 1.469.513 2.938 0 1.467.125 1.467.125 2.936 0 1.466-.429 1.466-.429 2.935 0 1.467-1.132 1.997-.063 3.003 1.14 1.068 1.627.193 3.19.193s1.563-.434 3.126-.434c1.56 0 1.56.569 3.122.569 1.562 0 1.562-.062 3.124-.062s1.562-.338 3.122-.338c1.563 0 1.563-.277 3.122-.277 1.562 0 1.562.465 3.122.465 1.562 0 1.562-.411 3.124-.411 1.56 0 1.56.55 3.122.55 1.561 0 1.561-.17 3.123-.17 1.561 0 1.561.102 3.121.102 1.562 0 1.562.018 3.123.018s1.562-.146 3.123-.146c1.561 0 1.871.821 3.007-.25 1.07-1.006.642-1.381.344-2.862-.292-1.438-.393-1.422-.393-2.89 0-1.469.193-1.469.193-2.936 0-1.469-.06-1.469-.06-2.938 0-1.467-.174-1.467-.174-2.936 0-1.467.63-1.467.63-2.934 0-1.404.381-1.674-.517-2.57a5.072 5.072 0 0 0 3.741-4.885zm-7.167-.785c-.004-.063-.393-.605-.874-.862-.091-.05-.174-.089-.254-.13-.672-.323-.984-.33-.984-.33.754-.812 1.247-.984 1.568-.828.56.269.59 1.535.544 2.15zm-35.031-1.322s-.39.006-1.239.46c-.481.257-.869.8-.873.862-.075-.967.043-3.55 2.112-1.322zm7.021 23.895c-.149 0-.368-.025-.658-.076a4.678 4.678 0 0 0-.658-.085c-.581.3-1.127.448-1.637.448-.909 0-1.688-.323-2.342-.969-.652-.646-.978-1.422-.978-2.33 0-.928.321-1.713.963-2.354.644-.644 1.429-.964 2.356-.964.44 0 .898.099 1.369.294.514.211.887.486 1.122.824.058.079.086.148.086.204 0 .091-.166.318-.497.685-.31.344-.521.552-.635.623a.337.337 0 0 1-.179.057c-.051 0-.189-.07-.415-.211a1.37 1.37 0 0 0-.744-.214.978.978 0 0 0-.728.311 1.05 1.05 0 0 0-.298.745c0 .29.105.545.315.766.211.222.46.332.746.332.194 0 .367-.036.523-.108a24.562 24.562 0 0 0-.072-.63 6.055 6.055 0 0 1-.046-.625c0-.035.007-.064.02-.091.018-.018.049-.026.094-.026a3.9 3.9 0 0 1 .241.026c.21.024.503.034.882.034.132 0 .327-.005.59-.016.263-.014.46-.019.591-.019.087 0 .13.034.13.106 0 .161-.013.402-.042.727a9.216 9.216 0 0 0-.043.723c0 .188.017.473.049.854.033.38.05.655.05.824.001.091-.051.135-.155.135zm.013-7.905c-.128 0-.322-.006-.58-.019a16.486 16.486 0 0 0-.582-.019c-.13 0-.32.008-.574.019-.253.013-.444.019-.572.019-.076 0-.122-.046-.133-.135v-.221c0-.118-.058-.178-.171-.178-.695 0-1.103.019-1.221.055-.119.038-.193.133-.221.282-.024.13-.07.196-.143.196-.123 0-.306-.006-.55-.019a14.475 14.475 0 0 0-.55-.019c-.12 0-.303.008-.544.019-.243.013-.425.019-.544.019-.087 0-.13-.037-.13-.111 0-.091.705-2.125 2.116-6.104a.37.37 0 0 1 .072-.137c.021-.016.067-.023.138-.023.104 0 .259.012.463.04.206.026.359.039.465.039.419 0 .713-.021.88-.063a.265.265 0 0 1 .076-.016c.051 0 .109.048.18.151.028.045.152.312.366.8.17.376.412.944.726 1.707.148.395.349.996.601 1.8.253.806.451 1.405.598 1.795.01.027.013.046.013.058 0 .045-.059.065-.179.065zm17.098-4.588a39.368 39.368 0 0 1-.044-1.525c0-.065.063-.098.186-.098a10.04 10.04 0 0 0 1.35-.152 2.83 2.83 0 0 1 .475-.052c.041 0 .103.063.184.191.05.08.29.421.72 1.024.229.337.593.826 1.087 1.467.029-.021.045-.116.045-.291 0-.229-.02-.576-.058-1.039-.039-.464-.06-.812-.06-1.042 0-.114.03-.173.09-.173.12 0 .299.004.537.013.239.01.418.014.537.014.129 0 .32-.004.576-.014.258-.009.45-.013.578-.013.055 0 .08.039.08.121 0 .34-.016.852-.05 1.536a36.106 36.106 0 0 0-.048 1.541l-.01 2.976c0 .068-.053.104-.156.104a7.17 7.17 0 0 1-.441-.019 9.24 9.24 0 0 0-.44-.019c-.101 0-.254.008-.46.019a7.987 7.987 0 0 1-.466.019c-.052 0-.111-.05-.184-.148-1.082-1.498-1.668-2.246-1.758-2.246-.042 0-.063.045-.063.13 0 .233.009.583.026 1.049.018.467.028.816.028 1.049 0 .11-.048.167-.14.167-.107 0-.27-.006-.486-.019a11.373 11.373 0 0 0-.484-.019c-.116 0-.293.008-.525.019-.236.013-.41.019-.526.019-.099 0-.147-.044-.147-.131 0-.324.014-.813.044-1.464.03-.653.045-1.141.045-1.466 0-.342-.014-.85-.042-1.528zm-15.735-.887c.646-.646 1.43-.968 2.351-.968.928 0 1.684.291 2.269.871.07.07.107.131.107.186 0 .062-.142.348-.423.857-.283.506-.452.785-.509.829a.199.199 0 0 1-.124.052c-.016 0-.082-.048-.197-.146a1.987 1.987 0 0 0-.407-.268 1.476 1.476 0 0 0-.645-.144.968.968 0 0 0-.728.312 1.03 1.03 0 0 0-.296.739c0 .29.098.541.296.749a.961.961 0 0 0 .728.316c.48 0 .85-.145 1.109-.43.042-.047.074-.072.095-.072.035 0 .217.242.545.726.332.496.498.784.498.868 0 .057-.035.13-.104.219-.234.305-.568.543-1 .715a3.221 3.221 0 0 1-1.214.238c-.921 0-1.705-.32-2.351-.959-.646-.641-.969-1.42-.969-2.338 0-.922.323-1.705.969-2.352zm5.534 13.492c-.126 0-.321-.006-.58-.019a13.783 13.783 0 0 0-.581-.018c-.129 0-.319.006-.573.018-.254.013-.444.019-.572.019-.077 0-.121-.045-.135-.134v-.221c0-.118-.057-.179-.17-.179-.695 0-1.102.019-1.222.056-.119.039-.19.132-.218.281-.025.131-.072.196-.145.196-.122 0-.305-.006-.55-.019a12.264 12.264 0 0 0-.55-.018c-.119 0-.301.006-.544.018-.242.013-.424.019-.543.019-.088 0-.131-.038-.131-.112 0-.09.705-2.123 2.116-6.101a.386.386 0 0 1 .072-.139c.021-.016.067-.024.138-.024.105 0 .259.015.464.041.205.025.359.039.463.039.421 0 .714-.021.882-.062a.294.294 0 0 1 .075-.019c.051 0 .11.052.18.152.029.045.153.311.366.802.17.375.412.944.726 1.704.149.396.349.998.602 1.803.252.805.45 1.404.597 1.794.01.026.014.047.014.06 0 .042-.059.063-.181.063zm.467-8.148c0-.363.016-.912.048-1.646.03-.734.047-1.283.047-1.65 0-.146-.006-.477-.02-.988-.262.017-.656.051-1.179.098-.049-.02-.072-.034-.072-.04 0-.032.025-.186.075-.456.057-.295.087-.469.094-.52.01-.273.039-.604.09-.988.009-.023.031-.037.066-.037.014 0 .036.004.072.01.597.066 1.33.099 2.201.099.266 0 .764-.034 1.495-.103.363-.035.559-.054.586-.054.089 0 .134.021.134.066 0 .108-.007.271-.021.487a6.395 6.395 0 0 0-.023.484c0 .1.014.25.04.451.027.199.04.352.04.452 0 .058-.032.087-.094.089a40.104 40.104 0 0 0-1.122-.066 52.67 52.67 0 0 0-.019 1.016c0 .367.016.916.047 1.65s.048 1.283.048 1.646c0 .089-.046.135-.136.135-.124 0-.315-.007-.572-.021a12.928 12.928 0 0 0-.576-.021c-.123 0-.306.008-.551.019-.244.013-.428.019-.551.019-.097 0-.147-.044-.147-.131zm6.957 8.148c-.116 0-.291-.006-.526-.019a11.164 11.164 0 0 0-.529-.018c-.117 0-.293.006-.53.018-.237.013-.414.019-.53.019-.092 0-.139-.056-.139-.167 0-.199.009-.5.027-.904.018-.404.025-.707.025-.906 0-.086-.008-.131-.025-.131-.057 0-.247.377-.57 1.129-.323.751-.517 1.127-.575 1.127-.083 0-.28-.376-.591-1.127-.311-.752-.494-1.129-.555-1.129-.018 0-.027.045-.027.131 0 .199.01.502.027.906.019.404.026.705.026.904 0 .111-.044.167-.134.167-.119 0-.296-.006-.533-.019a11.306 11.306 0 0 0-.532-.018c-.116 0-.29.006-.524.018-.235.013-.409.019-.525.019-.1 0-.148-.043-.148-.13 0-.326.016-.814.044-1.465.031-.653.045-1.141.045-1.466 0-.346-.014-.866-.043-1.56a46.722 46.722 0 0 1-.041-1.559c0-.065.066-.099.2-.099.1 0 .248-.004.444-.014.196-.009.344-.013.442-.013.109 0 .277-.014.506-.039.227-.024.395-.037.504-.037.028 0 .082.064.162.195a34.26 34.26 0 0 1 1.042 1.822c.132.245.208.367.228.367.046 0 .117-.114.217-.341.103-.244.262-.547.474-.908.305-.511.478-.805.524-.885.067-.128.128-.193.182-.193.111 0 .279.006.506.019s.396.019.51.019c.11 0 .273-.011.489-.03.218-.018.381-.027.491-.027.072 0 .106.033.106.102 0 .352-.014.881-.045 1.589a44.957 44.957 0 0 0-.044 1.592c0 .325.016.813.047 1.466.031.65.047 1.139.047 1.465-.001.087-.051.13-.149.13zm.151-8.035c-.247.013-.431.019-.553.019-.099 0-.147-.044-.147-.131 0-.363.015-.912.044-1.646.03-.734.045-1.283.045-1.65 0-.307-.015-.768-.042-1.379a31.878 31.878 0 0 1-.043-1.372c0-.065.035-.099.107-.099.132 0 .33.006.593.019.265.01.464.017.598.017.125 0 .313-.007.564-.017.249-.013.436-.019.559-.019.077 0 .116.035.116.106 0 .306-.014.762-.042 1.372a31.344 31.344 0 0 0-.043 1.371c0 .367.015.916.045 1.65.029.734.044 1.283.044 1.646 0 .089-.043.135-.129.135-.127 0-.322-.007-.58-.021a13.164 13.164 0 0 0-.583-.021c-.123.001-.308.009-.553.02zm5.63 6.675c-.056.257-.083.399-.091.433-.023.207-.072.509-.146.908-.015.068-.07.104-.167.104a.854.854 0 0 1-.124-.014c-.524-.071-1.222-.107-2.09-.107-.239 0-.595.006-1.068.018a42.3 42.3 0 0 1-1.065.019c-.098 0-.148-.043-.148-.13 0-.335.019-.836.055-1.505.036-.671.053-1.173.053-1.507a66.465 66.465 0 0 0-.097-2.97l-.005-.063c-.007-.068.03-.103.11-.103.232 0 .584.007 1.051.019s.817.018 1.053.018.592-.006 1.068-.018c.479-.012.836-.019 1.074-.019.167 0 .268.076.301.229.015.06.045.323.089.786.044.462.068.727.068.793 0 .061-.032.089-.095.089-.162 0-.405-.015-.729-.049a8.212 8.212 0 0 0-1.191-.044c-.232.021-.35.084-.35.188 0 .143.14.232.416.27.08.008.27.012.574.012.25 0 .49-.012.72-.035.227-.022.354-.036.379-.041.07.003.108.043.108.126s-.014.212-.04.385a5.113 5.113 0 0 0-.058.397c-.039.4-.06.685-.06.854 0 .066-.046.099-.138.099.027 0-.103-.018-.389-.055a9.721 9.721 0 0 0-1.106-.056c-.271 0-.407.074-.407.222 0 .072.019.125.054.156.087.072.536.109 1.348.109.11 0 .275-.01.495-.029a5.81 5.81 0 0 1 .492-.029c.075 0 .112.036.112.107.001.106-.017.25-.056.433zm3.79-3.049c-.255.17-.381.354-.381.543 0 .136.114.398.344.791.229.392.344.745.344 1.058 0 .385-.089.724-.268 1.02-.188.313-.543.624-1.064.926-.438.253-.88.446-1.324.577a.42.42 0 0 1-.089.016c-.036 0-.07-.035-.104-.1-.023-.045-.194-.361-.514-.947a35.286 35.286 0 0 1-.452-.844c0-.021.099-.088.295-.205.241-.141.426-.268.551-.389.196-.191.294-.393.294-.599a.984.984 0 0 0-.196-.565l-.366-.527a1.76 1.76 0 0 1-.197-.845c0-.556.264-1.016.788-1.378.427-.297.946-.487 1.556-.574a.728.728 0 0 0 .14-.021c.014 0 .036.032.062.098.132.322.45.872.954 1.647.009.015.013.028.013.04s-.129.103-.386.278zM32.366 2.749a5.106 5.106 0 0 0-1.713-1.434c-.031-.016-.063-.03-.094-.045a5.796 5.796 0 0 0-.396-.174c-.049-.018-.099-.038-.148-.055a4.942 4.942 0 0 0-.371-.113c-.059-.016-.116-.032-.176-.045a4.494 4.494 0 0 0-.388-.07c-.056-.008-.109-.02-.168-.026a5.071 5.071 0 0 0-5.63 5.033c0 .187.013.372.033.554l.007.078c.021.172.054.343.093.512.007.028.015.058.021.09.042.166.091.329.149.488l.026.067c.127.333.288.649.479.944.011.02.021.039.035.057.094.141.194.276.301.406l.053.064c.109.128.225.252.346.369.014.016.031.028.047.043.128.124.261.237.401.347-.004-.004-.007-.011-.01-.013.177.134.358.265.552.377a5.044 5.044 0 0 0 2.531.683 5.04 5.04 0 0 0 2.53-.683 5.07 5.07 0 0 0 2.535-4.383 5.025 5.025 0 0 0-1.045-3.071zm-3.542 3.307s-.415-.316-1.579-.11c-.64.114-1.114.292-1.148.366.317-1.872 1.781-2.659 2.727-.256zm2.737-.383s-.414-.316-1.578-.111c-.641.115-.788.291-.821.365.022-1.853 1.65-2.791 2.399-.254zm.112 1.062c-.393 3.104-3.839 3.766-5.609.909 0 0 1.647.668 3.436.351.983-.176 2.119-1.146 2.173-1.26.003-.019.014-.035.018-.055-.001.001-.003.022-.018.055z"/></g></svg>