<svg xmlns="http://www.w3.org/2000/svg" viewBox="118.404 157.923 196.3 109.5">
  <path d="M259.304 158.023c-2.5-.5-5 1.2-5.4 3.8l-19 99.8c-.5 2.6 1.2 5.1 3.7 5.6h.9c2.2 0 4.1-1.6 4.6-3.9l19-99.8c.5-2.6-1.2-5.1-3.7-5.6m34.9 65.8c5-2.3 8.5-7.5 8.5-13.5s-6.5-14.8-14.4-14.8-14.4 6.6-14.4 14.8c0 8.2 3.5 11.2 8.5 13.5-10.7 2.8-20.5 13.2-20.5 30.4.002 3.244 2.1 4.8 4.6 4.8 2.5 0 4.6-2.1 4.6-4.8 0-5 1-9 2.7-12.1v21.4c0 2.2 1.7 3.9 3.8 3.9h21.3c2.1 0 3.8-1.7 3.8-3.9v-21.1c1.9 3.9 2.7 8.3 2.7 11.8s2.1 4.8 4.6 4.8c2.5 0 4.6-2.1 4.6-4.8 0-17.2-9.8-27.7-20.5-30.4m-90.3-37.2c5.2-2.2 8.9-7.5 8.9-13.7 0-6.2-6.5-14.8-14.4-14.8s-14.4 6.6-14.4 14.8c0 8.2 3.6 11.4 8.8 13.6-11.4 1.9-22.9 10.7-24.2 38.2-6 3.5-9 2.3-13.4.7-1.4-.5-2.9-1.1-4.6-1.5 5.1-2.3 8.6-7.5 8.6-13.5s-6.5-14.8-14.4-14.8-14.4 6.6-14.4 14.8c0 8.2 3.5 11.2 8.5 13.5-10.7 2.8-20.5 13.2-20.5 30.4.175 4.138 2.1 4.8 4.6 4.8 2.5 0 4.6-2.1 4.6-4.8 0-5 1-9 2.7-12.1v21.4c0 2.2 1.7 3.9 3.8 3.9h21.3c2.1 0 3.8-1.7 3.8-3.9v-24.4c0-.9 0-1.9-.3-2.8.8 0 1.7.2 2.6.2 2.8 0 6-.7 9.7-2.5.6.3 1.2.4 1.9.4 2.6 0 4.6-2.1 4.6-4.8 0-14.3 2.7-22.6 6.2-27.4v61.2c0 2.2 1.7 3.9 3.8 3.9h21.3c2.1 0 3.8-1.7 3.8-3.9v-60.7c3.3 4.9 5.8 13.1 5.8 26.8.097 3.305 2.1 4.8 4.6 4.8 2.5 0 4.6-2.1 4.6-4.8 0-31.1-12-41-24-43.1" style="stroke-width: 0px; fill: currentColor;"/>
</svg>
