<svg xmlns="http://www.w3.org/2000/svg" viewBox="227.93 155.05 196.4 189.9">
  <path d="M381.43 204.55c9.3-3.9 15.9-13.1 15.9-23.8 0-10.7-11.5-25.7-25.7-25.7s-25.7 11.5-25.7 25.7 6.4 19.8 15.6 23.7c-13.5 2.2-27.1 9.7-35.4 28.5-8.1-18.6-21.5-26.1-34.8-28.4 9.3-3.9 15.9-13.1 15.9-23.8 0-10.7-11.5-25.7-25.7-25.7s-25.7 11.5-25.7 25.7 6.4 19.8 15.6 23.7c-21.7 3.4-43.5 20.4-43.5 74.9.099 6.572 3.7 8.3 8.3 8.3 4.6 0 8.3-3.7 8.3-8.3 0-24.9 4.8-39.3 11.1-47.6v106.4c0 3.7 3 6.8 6.8 6.8h37.9c3.7 0 6.8-3 6.8-6.8v-105.4c5.9 8.5 10.3 22.7 10.3 46.6 0 6.496 3.7 8.3 8.3 8.3h.8c4.6 0 8.3-3.7 8.3-8.3 0-24.9 4.8-39.3 11.1-47.6v106.4c0 3.7 3 6.8 6.8 6.8h37.9c3.7 0 6.8-3 6.8-6.8v-105.3c5.9 8.5 10.3 22.7 10.3 46.6-.067 6.896 3.7 8.3 8.3 8.3 4.6 0 8.3-3.7 8.3-8.3 0-54.1-21.4-71.2-42.8-74.8" class="cls-1" style="stroke-width: 0px;"/>
</svg>
