<svg xmlns="http://www.w3.org/2000/svg" viewBox="242.837 151.544 166.587 196.912">
  <path d="M326.549 334.344c-38 .2-69-30.5-69.2-68.6v-.7c-.2-37.6 29.7-68.4 67.2-69.3 38-.9 69.6 29.2 70.5 67.2v2c.2 38.1-30.5 69.1-68.5 69.2m66.4-119 7.5-7.4c3.7-3.7 3.8-9.7.2-13.5-1.9-2-4-4-6.1-5.9-3.8-3.4-9.6-3.2-13.2.3l-7.8 7.8c-11.9-8.2-25.7-13.2-40.1-14.4v-15.8h12c4.1 0 7.3-3.4 7.2-7.5 0-3.9-3.2-7.1-7.2-7.2h-38.5c-4.1 0-7.3 3.4-7.2 7.5 0 3.9 3.2 7.1 7.2 7.2h12v15.8c-14.4 1.3-28.2 6.2-40.1 14.4l-7.8-7.8c-3.6-3.6-9.4-3.7-13.2-.3-2.1 1.9-4.1 3.8-6.1 5.9-3.6 3.8-3.5 9.8.2 13.5l7.5 7.4c-27.6 36.9-20 89.1 16.8 116.7 36.9 27.6 89.1 20 116.6-16.8 22.1-29.6 22.1-70.3 0-99.9m-62-5.2c-2.5-.2-4.6 1.8-4.6 4.3v101.8c0 2.5 2.1 4.5 4.6 4.3 11.5-1 22.9-5.5 32.2-13.8 22.8-20.3 24.9-55.3 4.6-78.2-9.5-10.7-22.7-17.2-36.8-18.4" class="cls-1" style="stroke-width: 0px;"/>
</svg>
